Alegreya Sans-Medium.ufo
<glyph name="numbersign" format="1">
  <advance width="529"/>
  <unicode hex="0023"/>
  <outline>
    <contour>
      <point x="371" y="574" type="line"/>
      <point x="258" y="40" type="line"/>
      <point x="264" y="32" type="line"/>
      <point x="323" y="32" type="line"/>
      <point x="436" y="565" type="line"/>
      <point x="429" y="574" type="line"/>
    </contour>
    <contour>
      <point x="25" y="250" type="line"/>
      <point x="20" y="196" type="line"/>
      <point x="27" y="189" type="line"/>
      <point x="470" y="189" type="line"/>
      <point x="475" y="243" type="line"/>
      <point x="468" y="250" type="line"/>
    </contour>
    <contour>
      <point x="199" y="574" type="line"/>
      <point x="86" y="40" type="line"/>
      <point x="92" y="32" type="line"/>
      <point x="151" y="32" type="line"/>
      <point x="264" y="565" type="line"/>
      <point x="257" y="574" type="line"/>
    </contour>
    <contour>
      <point x="59" y="422" type="line"/>
      <point x="54" y="368" type="line"/>
      <point x="61" y="361" type="line"/>
      <point x="504" y="361" type="line"/>
      <point x="509" y="415" type="line"/>
      <point x="502" y="422" type="line"/>
    </contour>
  </outline>
</glyph>
<glyph name="slash" format="1">
  <advance width="286"/>
  <unicode hex="002F"/>
  <outline>
    <contour>
      <point x="218" y="679" type="line"/>
      <point x="13" y="-105" type="line"/>
      <point x="20" y="-114" type="line"/>
      <point x="90" y="-114" type="line"/>
      <point x="296" y="669" type="line"/>
      <point x="288" y="679" type="line"/>
    </contour>
  </outline>
</glyph>
<glyph name="one" format="1">
  <advance width="351"/>
  <unicode hex="0031"/>
  <outline>
    <contour>
      <point x="10" y="443" type="line"/>
      <point x="10" y="362" type="line"/>
      <point x="19" y="356" type="line"/>
      <point x="141" y="390" type="line"/>
      <point x="141" y="196" type="line"/>
      <point x="136" y="0" type="line"/>
      <point x="239" y="0" type="line"/>
      <point x="234" y="207" type="line"/>
      <point x="240" y="495" type="line"/>
      <point x="225" y="506" type="line"/>
    </contour>
  </outline>
</glyph>
<glyph name="question" format="1">
  <advance width="335"/>
  <unicode hex="003F"/>
  <outline>
    <contour>
      <point x="74" y="659" type="line"/>
      <point x="55" y="602" type="line"/>
      <point x="62" y="592" type="line"/>
      <point x="195" y="584"/>
      <point x="253" y="549"/>
      <point x="253" y="489" type="curve" smooth="yes"/>
      <point x="253" y="454"/>
      <point x="232" y="424"/>
      <point x="194" y="402" type="curve" smooth="yes"/>
      <point x="101" y="350" type="line"/>
      <point x="96" y="340" type="line"/>
      <point x="104" y="223" type="line"/>
      <point x="112" y="215" type="line"/>
      <point x="184" y="224" type="line"/>
      <point x="178" y="316" type="line"/>
      <point x="180" y="320" type="line"/>
      <point x="258" y="370" type="line" smooth="yes"/>
      <point x="314" y="404"/>
      <point x="345" y="452"/>
      <point x="345" y="505" type="curve" smooth="yes"/>
      <point x="345" y="598"/>
      <point x="251" y="655"/>
      <point x="85" y="664" type="curve"/>
    </contour>
    <component base="period" xOffset="35"/>
  </outline>
</glyph>
<glyph name="C" format="1">
  <advance width="519"/>
  <unicode hex="0043"/>
  <outline>
    <contour>
      <point x="141" y="649"/>
      <point x="34" y="529"/>
      <point x="34" y="315" type="curve" smooth="yes"/>
      <point x="34" y="108"/>
      <point x="135" y="-8"/>
      <point x="315" y="-8" type="curve" smooth="yes"/>
      <point x="377" y="-8"/>
      <point x="430" y="7"/>
      <point x="485" y="34" type="curve"/>
      <point x="493" y="128" type="line"/>
      <point x="483" y="134" type="line"/>
      <point x="437" y="99"/>
      <point x="379" y="79"/>
      <point x="323" y="79" type="curve" smooth="yes"/>
      <point x="208" y="79"/>
      <point x="142" y="163"/>
      <point x="142" y="326" type="curve" smooth="yes"/>
      <point x="142" y="484"/>
      <point x="206" y="563"/>
      <point x="323" y="563" type="curve" smooth="yes"/>
      <point x="380" y="563"/>
      <point x="430" y="543"/>
      <point x="471" y="511" type="curve"/>
      <point x="481" y="514" type="line"/>
      <point x="500" y="605" type="line"/>
      <point x="452" y="633"/>
      <point x="394" y="649"/>
      <point x="327" y="649" type="curve" smooth="yes"/>
    </contour>
    <contour>
      <point x="310" y="0" type="move" name="bottom"/>
    </contour>
    <contour>
      <point x="314" y="642" type="move" name="top"/>
    </contour>
  </outline>
</glyph>
<glyph name="G" format="1">
  <advance width="599"/>
  <unicode hex="0047"/>
  <outline>
    <contour>
      <point x="151" y="649"/>
      <point x="34" y="530"/>
      <point x="34" y="307" type="curve" smooth="yes"/>
      <point x="34" y="108"/>
      <point x="128" y="-8"/>
      <point x="327" y="-8" type="curve" smooth="yes"/>
      <point x="390" y="-8"/>
      <point x="456" y="4"/>
      <point x="542" y="31" type="curve"/>
      <point x="539" y="178" type="line"/>
      <point x="541" y="265" type="line"/>
      <point x="444" y="258" type="line"/>
      <point x="447" y="162" type="line"/>
      <point x="444" y="97" type="line"/>
      <point x="394" y="82"/>
      <point x="366" y="77"/>
      <point x="333" y="77" type="curve" smooth="yes"/>
      <point x="201" y="77"/>
      <point x="141" y="146"/>
      <point x="141" y="312" type="curve" smooth="yes"/>
      <point x="141" y="488"/>
      <point x="208" y="563"/>
      <point x="339" y="563" type="curve" smooth="yes"/>
      <point x="399" y="563"/>
      <point x="447" y="547"/>
      <point x="512" y="509" type="curve"/>
      <point x="523" y="510" type="line"/>
      <point x="544" y="606" type="line"/>
      <point x="483" y="636"/>
      <point x="422" y="649"/>
      <point x="356" y="649" type="curve" smooth="yes"/>
    </contour>
    <contour>
      <point x="306" y="0" type="move" name="bottom"/>
    </contour>
    <contour>
      <point x="326" y="642" type="move" name="top"/>
    </contour>
  </outline>
</glyph>
<glyph name="I" format="1">
  <advance width="279"/>
  <unicode hex="0049"/>
  <outline>
    <contour>
      <point x="86" y="642" type="line"/>
      <point x="93" y="193" type="line"/>
      <point x="86" y="0" type="line"/>
      <point x="190" y="0" type="line"/>
      <point x="186" y="202" type="line"/>
      <point x="192" y="642" type="line"/>
    </contour>
    <contour>
      <point x="242" y="10" type="move" name="ogonek"/>
    </contour>
    <contour>
      <point x="139" y="642" type="move" name="top"/>
    </contour>
  </outline>
</glyph>
<glyph name="M" format="1">
  <advance width="792"/>
  <unicode hex="004D"/>
  <outline>
    <contour>
      <point x="559" y="642" type="line"/>
      <point x="529" y="549" type="line"/>
      <point x="399" y="205" type="line"/>
      <point x="391" y="205" type="line"/>
      <point x="268" y="546" type="line"/>
      <point x="238" y="642" type="line"/>
      <point x="119" y="642" type="line"/>
      <point x="53" y="0" type="line"/>
      <point x="140" y="0" type="line"/>
      <point x="156" y="204" type="line"/>
      <point x="186" y="485" type="line"/>
      <point x="195" y="485" type="line"/>
      <point x="348" y="71" type="line"/>
      <point x="430" y="71" type="line"/>
      <point x="594" y="485" type="line"/>
      <point x="602" y="485" type="line"/>
      <point x="632" y="195" type="line"/>
      <point x="645" y="0" type="line"/>
      <point x="737" y="0" type="line"/>
      <point x="676" y="642" type="line"/>
    </contour>
  </outline>
</glyph>
<glyph name="U" format="1">
  <advance width="631"/>
  <unicode hex="0055"/>
  <outline>
    <contour>
      <point x="459" y="642" type="line"/>
      <point x="464" y="236" type="line" smooth="yes"/>
      <point x="465" y="131"/>
      <point x="413" y="80"/>
      <point x="314" y="80" type="curve" smooth="yes"/>
      <point x="215" y="80"/>
      <point x="166" y="134"/>
      <point x="167" y="246" type="curve" smooth="yes"/>
      <point x="171" y="642" type="line"/>
      <point x="69" y="642" type="line"/>
      <point x="70" y="321" type="line"/>
      <point x="69" y="232" type="line" smooth="yes"/>
      <point x="66" y="78"/>
      <point x="152" y="-8"/>
      <point x="307" y="-8" type="curve" smooth="yes"/>
      <point x="470" y="-8"/>
      <point x="561" y="83"/>
      <point x="559" y="240" type="curve" smooth="yes"/>
      <point x="560" y="316" type="line"/>
      <point x="563" y="642" type="line"/>
    </contour>
    <contour>
      <point x="529" y="10" type="move" name="ogonek"/>
    </contour>
    <contour>
      <point x="318" y="642" type="move" name="top"/>
    </contour>
  </outline>
</glyph>
<glyph name="Y" format="1">
  <advance width="541"/>
  <unicode hex="0059"/>
  <outline>
    <contour>
      <point x="426" y="642" type="line"/>
      <point x="410" y="600" type="line"/>
      <point x="270" y="333" type="line"/>
      <point x="262" y="333" type="line"/>
      <point x="134" y="602" type="line"/>
      <point x="121" y="642" type="line"/>
      <point x="11" y="642" type="line"/>
      <point x="245" y="164" type="line"/>
      <point x="278" y="164" type="line"/>
      <point x="535" y="642" type="line"/>
    </contour>
    <contour>
      <point x="214" y="275" type="line"/>
      <point x="217" y="184" type="line"/>
      <point x="210" y="0" type="line"/>
      <point x="314" y="0" type="line"/>
      <point x="310" y="184" type="line"/>
      <point x="312" y="275" type="line"/>
    </contour>
    <contour>
      <point x="266" y="642" type="move" name="top"/>
    </contour>
  </outline>
</glyph>
<glyph name="bracketleft" format="1">
  <advance width="291"/>
  <unicode hex="005B"/>
  <outline>
    <contour>
      <point x="90" y="637" type="line"/>
      <point x="95" y="260" type="line"/>
      <point x="90" y="-118" type="line"/>
      <point x="282" y="-128" type="line"/>
      <point x="287" y="-122" type="line"/>
      <point x="287" y="-75" type="line"/>
      <point x="173" y="-63" type="line"/>
      <point x="173" y="581" type="line"/>
      <point x="287" y="594" type="line"/>
      <point x="287" y="641" type="line"/>
      <point x="282" y="647" type="line"/>
    </contour>
  </outline>
</glyph>
<glyph name="a" format="1">
  <advance width="470"/>
  <unicode hex="0061"/>
  <outline>
    <contour>
      <point x="176" y="470"/>
      <point x="114" y="449"/>
      <point x="57" y="410" type="curve"/>
      <point x="70" y="339" type="line"/>
      <point x="78" y="334" type="line"/>
      <point x="132" y="378"/>
      <point x="176" y="398"/>
      <point x="221" y="398" type="curve" smooth="yes"/>
      <point x="267" y="398"/>
      <point x="293" y="373"/>
      <point x="293" y="323" type="curve" smooth="yes"/>
      <point x="292" y="269" type="line"/>
      <point x="134" y="234" type="line" smooth="yes"/>
      <point x="72" y="220"/>
      <point x="37" y="186"/>
      <point x="37" y="123" type="curve" smooth="yes"/>
      <point x="37" y="43"/>
      <point x="92" y="-7"/>
      <point x="185" y="-8" type="curve"/>
      <point x="223" y="7"/>
      <point x="256" y="33"/>
      <point x="289" y="67" type="curve"/>
      <point x="296" y="67" type="line"/>
      <point x="301" y="24"/>
      <point x="328" y="-3"/>
      <point x="369" y="-7" type="curve"/>
      <point x="392" y="-4"/>
      <point x="414" y="4"/>
      <point x="432" y="15" type="curve"/>
      <point x="442" y="71" type="line"/>
      <point x="433" y="78" type="line"/>
      <point x="418" y="75"/>
      <point x="410" y="74"/>
      <point x="402" y="74" type="curve" smooth="yes"/>
      <point x="381" y="74"/>
      <point x="374" y="82"/>
      <point x="374" y="108" type="curve" smooth="yes"/>
      <point x="374" y="142"/>
      <point x="386" y="310"/>
      <point x="386" y="345" type="curve" smooth="yes"/>
      <point x="386" y="424"/>
      <point x="328" y="470"/>
      <point x="237" y="470" type="curve" smooth="yes"/>
    </contour>
    <contour>
      <point x="289" y="133" type="line"/>
      <point x="256" y="95"/>
      <point x="224" y="72"/>
      <point x="189" y="72" type="curve" smooth="yes"/>
      <point x="152" y="72"/>
      <point x="128" y="95"/>
      <point x="128" y="136" type="curve" smooth="yes"/>
      <point x="128" y="163"/>
      <point x="139" y="174"/>
      <point x="162" y="179" type="curve" smooth="yes"/>
      <point x="292" y="210" type="line"/>
    </contour>
    <contour>
      <point x="435" y="10" type="move" name="ogonek"/>
    </contour>
    <contour>
      <point x="227" y="461" type="move" name="top"/>
    </contour>
  </outline>
</glyph>
<glyph name="b" format="1">
  <advance width="516"/>
  <unicode hex="0062"/>
  <outline>
    <contour>
      <point x="254" y="451"/>
      <point x="223" y="433"/>
      <point x="181" y="397" type="curve"/>
      <point x="163" y="397" type="line"/>
      <point x="163" y="314" type="line"/>
      <point x="209" y="363"/>
      <point x="245" y="384"/>
      <point x="284" y="384" type="curve" smooth="yes"/>
      <point x="348" y="384"/>
      <point x="382" y="328"/>
      <point x="384" y="231" type="curve" smooth="yes"/>
      <point x="386" y="114"/>
      <point x="336" y="61"/>
      <point x="260" y="61" type="curve" smooth="yes"/>
      <point x="211" y="61"/>
      <point x="156" y="90"/>
      <point x="97" y="151" type="curve"/>
      <point x="94" y="47" type="line"/>
      <point x="145" y="13"/>
      <point x="201" y="-9"/>
      <point x="256" y="-9" type="curve"/>
      <point x="395" y="-9"/>
      <point x="480" y="81"/>
      <point x="480" y="245" type="curve" smooth="yes"/>
      <point x="480" y="383"/>
      <point x="418" y="466"/>
      <point x="300" y="466" type="curve"/>
    </contour>
    <contour>
      <point x="76" y="694" type="line"/>
      <point x="82" y="192" type="line"/>
      <point x="75" y="-2" type="line"/>
      <point x="90" y="-12" type="line"/>
      <point x="175" y="23" type="line"/>
      <point x="171" y="204" type="line"/>
      <point x="178" y="702" type="line"/>
    </contour>
  </outline>
</glyph>
<glyph name="c" format="1">
  <advance width="385"/>
  <unicode hex="0063"/>
  <outline>
    <contour>
      <point x="116" y="470"/>
      <point x="37" y="377"/>
      <point x="37" y="226" type="curve" smooth="yes"/>
      <point x="37" y="80"/>
      <point x="111" y="-9"/>
      <point x="236" y="-9" type="curve" smooth="yes"/>
      <point x="277" y="-9"/>
      <point x="321" y="0"/>
      <point x="358" y="14" type="curve"/>
      <point x="369" y="96" type="line"/>
      <point x="359" y="102" type="line"/>
      <point x="325" y="84"/>
      <point x="286" y="72"/>
      <point x="252" y="72" type="curve" smooth="yes"/>
      <point x="176" y="72"/>
      <point x="133" y="132"/>
      <point x="133" y="234" type="curve" smooth="yes"/>
      <point x="133" y="331"/>
      <point x="175" y="386"/>
      <point x="246" y="386" type="curve" smooth="yes"/>
      <point x="280" y="386"/>
      <point x="314" y="373"/>
      <point x="344" y="355" type="curve"/>
      <point x="354" y="359" type="line"/>
      <point x="371" y="444" type="line"/>
      <point x="338" y="460"/>
      <point x="291" y="470"/>
      <point x="248" y="470" type="curve" smooth="yes"/>
    </contour>
    <contour>
      <point x="226" y="0" type="move" name="bottom"/>
    </contour>
    <contour>
      <point x="238" y="461" type="move" name="top"/>
    </contour>
  </outline>
</glyph>
<glyph name="f" format="1">
  <advance width="314"/>
  <unicode hex="0066"/>
  <outline>
    <contour>
      <point x="170" y="704"/>
      <point x="103" y="642"/>
      <point x="104" y="528" type="curve"/>
      <point x="107" y="194" type="line"/>
      <point x="101" y="0" type="line"/>
      <point x="203" y="0" type="line"/>
      <point x="196" y="203" type="line"/>
      <point x="202" y="545" type="line"/>
      <point x="203" y="603"/>
      <point x="229" y="631"/>
      <point x="276" y="631" type="curve" smooth="yes"/>
      <point x="299" y="631"/>
      <point x="322" y="626"/>
      <point x="353" y="612" type="curve"/>
      <point x="360" y="618" type="line"/>
      <point x="366" y="695" type="line"/>
      <point x="338" y="701"/>
      <point x="311" y="704"/>
      <point x="285" y="704" type="curve" smooth="yes"/>
    </contour>
    <contour>
      <point x="37" y="459" type="line"/>
      <point x="32" y="400" type="line"/>
      <point x="36" y="394" type="line"/>
      <point x="315" y="394" type="line"/>
      <point x="321" y="452" type="line"/>
      <point x="318" y="459" type="line"/>
    </contour>
  </outline>
</glyph>
<glyph name="h" format="1">
  <advance width="524"/>
  <unicode hex="0068"/>
  <outline>
    <contour>
      <point x="263" y="455"/>
      <point x="220" y="431"/>
      <point x="180" y="396" type="curve"/>
      <point x="162" y="396" type="line"/>
      <point x="162" y="313" type="line"/>
      <point x="205" y="358"/>
      <point x="249" y="384"/>
      <point x="293" y="384" type="curve" smooth="yes"/>
      <point x="341" y="384"/>
      <point x="365" y="353"/>
      <point x="364" y="303" type="curve"/>
      <point x="357" y="0" type="line"/>
      <point x="460" y="0" type="line"/>
      <point x="455" y="202" type="line"/>
      <point x="458" y="332" type="line" smooth="yes"/>
      <point x="459" y="418"/>
      <point x="406" y="467"/>
      <point x="303" y="467" type="curve"/>
    </contour>
    <contour>
      <point x="259" y="234" type="move"/>
    </contour>
    <component base="l"/>
    <contour>
      <point x="263" y="231" type="move" name="center"/>
    </contour>
    <contour>
      <point x="125" y="649" type="move" name="top"/>
    </contour>
  </outline>
</glyph>
<glyph name="k" format="1">
  <advance width="472"/>
  <unicode hex="006B"/>
  <outline>
    <contour>
      <point x="343" y="461" type="line"/>
      <point x="318" y="417" type="line"/>
      <point x="186" y="249" type="line"/>
      <point x="186" y="242" type="line"/>
      <point x="239" y="157"/>
      <point x="298" y="75"/>
      <point x="360" y="-5" type="curve"/>
      <point x="372" y="-9" type="line"/>
      <point x="403" y="-5"/>
      <point x="434" y="-2"/>
      <point x="465" y="6" type="curve"/>
      <point x="465" y="18" type="line"/>
      <point x="404" y="93"/>
      <point x="341" y="172"/>
      <point x="285" y="251" type="curve"/>
      <point x="454" y="461" type="line"/>
    </contour>
    <component base="l"/>
    <contour>
      <point x="257" y="0" type="move" name="bottom"/>
    </contour>
  </outline>
</glyph>
<glyph name="m" format="1">
  <advance width="799"/>
  <unicode hex="006D"/>
  <outline>
    <contour>
      <point x="537" y="454"/>
      <point x="490" y="429"/>
      <point x="448" y="392" type="curve"/>
      <point x="431" y="392" type="line"/>
      <point x="439" y="313" type="line"/>
      <point x="482" y="358"/>
      <point x="526" y="384"/>
      <point x="570" y="384" type="curve" smooth="yes"/>
      <point x="618" y="384"/>
      <point x="642" y="353"/>
      <point x="641" y="303" type="curve"/>
      <point x="634" y="0" type="line"/>
      <point x="737" y="0" type="line"/>
      <point x="732" y="202" type="line"/>
      <point x="734" y="332" type="line" smooth="yes"/>
      <point x="736" y="418"/>
      <point x="682" y="467"/>
      <point x="580" y="467" type="curve"/>
    </contour>
    <contour>
      <point x="72" y="454" type="line"/>
      <point x="77" y="193" type="line"/>
      <point x="71" y="0" type="line"/>
      <point x="172" y="0" type="line"/>
      <point x="167" y="202" type="line"/>
      <point x="169" y="463" type="line"/>
    </contour>
    <contour>
      <point x="262" y="158" type="move"/>
    </contour>
    <contour>
      <point x="258" y="455"/>
      <point x="215" y="431"/>
      <point x="175" y="396" type="curve"/>
      <point x="157" y="396" type="line"/>
      <point x="157" y="313" type="line"/>
      <point x="200" y="358"/>
      <point x="244" y="384"/>
      <point x="288" y="384" type="curve" smooth="yes"/>
      <point x="337" y="384"/>
      <point x="360" y="353"/>
      <point x="359" y="303" type="curve"/>
      <point x="353" y="0" type="line"/>
      <point x="455" y="0" type="line"/>
      <point x="450" y="202" type="line"/>
      <point x="453" y="332" type="line" smooth="yes"/>
      <point x="454" y="418"/>
      <point x="401" y="467"/>
      <point x="298" y="467" type="curve"/>
    </contour>
  </outline>
</glyph>
<glyph name="o" format="1">
  <advance width="492"/>
  <unicode hex="006F"/>
  <outline>
    <contour>
      <point x="114" y="470"/>
      <point x="37" y="381"/>
      <point x="37" y="223" type="curve" smooth="yes"/>
      <point x="37" y="75"/>
      <point x="110" y="-9"/>
      <point x="239" y="-9" type="curve" smooth="yes"/>
      <point x="377" y="-9"/>
      <point x="454" y="80"/>
      <point x="454" y="238" type="curve" smooth="yes"/>
      <point x="454" y="386"/>
      <point x="381" y="470"/>
      <point x="252" y="470" type="curve" smooth="yes"/>
    </contour>
    <contour>
      <point x="320" y="399"/>
      <point x="358" y="341"/>
      <point x="358" y="215" type="curve" smooth="yes"/>
      <point x="358" y="110"/>
      <point x="320" y="61"/>
      <point x="245" y="61" type="curve" smooth="yes"/>
      <point x="170" y="61"/>
      <point x="132" y="118"/>
      <point x="132" y="245" type="curve" smooth="yes"/>
      <point x="132" y="348"/>
      <point x="170" y="399"/>
      <point x="245" y="399" type="curve" smooth="yes"/>
    </contour>
    <contour>
      <point x="247" y="461" type="move" name="top"/>
    </contour>
  </outline>
</glyph>
<glyph name="r" format="1">
  <advance width="332"/>
  <unicode hex="0072"/>
  <outline>
    <contour>
      <point x="72" y="454" type="line"/>
      <point x="77" y="193" type="line"/>
      <point x="71" y="0" type="line"/>
      <point x="173" y="0" type="line"/>
      <point x="166" y="202" type="line"/>
      <point x="169" y="463" type="line"/>
    </contour>
    <contour>
      <point x="260" y="462"/>
      <point x="213" y="440"/>
      <point x="174" y="371" type="curve"/>
      <point x="158" y="371" type="line"/>
      <point x="158" y="250" type="line"/>
      <point x="195" y="332"/>
      <point x="233" y="365"/>
      <point x="277" y="365" type="curve" smooth="yes"/>
      <point x="286" y="365"/>
      <point x="301" y="364"/>
      <point x="314" y="360" type="curve"/>
      <point x="326" y="363" type="line"/>
      <point x="326" y="460" type="line"/>
      <point x="318" y="461"/>
      <point x="309" y="462"/>
      <point x="300" y="462" type="curve" smooth="yes"/>
    </contour>
    <contour>
      <point x="122" y="0" type="move" name="bottom"/>
    </contour>
    <contour>
      <point x="197" y="461" type="move" name="top"/>
    </contour>
  </outline>
</glyph>
<glyph name="t" format="1">
  <advance width="327"/>
  <unicode hex="0074"/>
  <outline>
    <contour>
      <point x="86" y="532" type="line"/>
      <point x="88" y="199" type="line"/>
      <point x="84" y="127" type="line"/>
      <point x="84" y="48"/>
      <point x="120" y="7"/>
      <point x="202" y="-6" type="curve"/>
      <point x="237" y="-3"/>
      <point x="268" y="7"/>
      <point x="305" y="24" type="curve"/>
      <point x="314" y="88" type="line"/>
      <point x="305" y="95" type="line"/>
      <point x="277" y="82"/>
      <point x="255" y="77"/>
      <point x="235" y="77" type="curve" smooth="yes"/>
      <point x="194" y="77"/>
      <point x="175" y="93"/>
      <point x="176" y="143" type="curve"/>
      <point x="185" y="558" type="line"/>
      <point x="177" y="566" type="line"/>
    </contour>
    <contour>
      <point x="25" y="459" type="line"/>
      <point x="20" y="400" type="line"/>
      <point x="24" y="394" type="line"/>
      <point x="310" y="394" type="line"/>
      <point x="315" y="452" type="line"/>
      <point x="311" y="459" type="line"/>
    </contour>
    <contour>
      <point x="188" y="0" type="move" name="bottom"/>
    </contour>
    <contour>
      <point x="164" y="231" type="move" name="center"/>
    </contour>
  </outline>
</glyph>
<glyph name="w" format="1">
  <advance width="685"/>
  <unicode hex="0077"/>
  <outline>
    <contour>
      <point x="18" y="459" type="line"/>
      <point x="143" y="0" type="line"/>
      <point x="243" y="0" type="line"/>
      <point x="342" y="332" type="line"/>
      <point x="350" y="332" type="line"/>
      <point x="435" y="0" type="line"/>
      <point x="532" y="0" type="line"/>
      <point x="680" y="461" type="line"/>
      <point x="593" y="461" type="line"/>
      <point x="577" y="394" type="line"/>
      <point x="492" y="106" type="line"/>
      <point x="486" y="106" type="line"/>
      <point x="412" y="399" type="line"/>
      <point x="402" y="461" type="line"/>
      <point x="303" y="461" type="line"/>
      <point x="287" y="394" type="line"/>
      <point x="201" y="106" type="line"/>
      <point x="195" y="106" type="line"/>
      <point x="122" y="399" type="line"/>
      <point x="111" y="464" type="line"/>
    </contour>
    <contour>
      <point x="347" y="461" type="move" name="top"/>
    </contour>
  </outline>
</glyph>
<glyph name="y" format="1">
  <advance width="435"/>
  <unicode hex="0079"/>
  <outline>
    <contour>
      <point x="5" y="459" type="line"/>
      <point x="175" y="0" type="line"/>
      <point x="131" y="-66"/>
      <point x="75" y="-99"/>
      <point x="-18" y="-117" type="curve"/>
      <point x="-22" y="-128" type="line"/>
      <point x="-10" y="-151"/>
      <point x="5" y="-172"/>
      <point x="25" y="-191" type="curve"/>
      <point x="34" y="-191" type="line"/>
      <point x="161" y="-157"/>
      <point x="228" y="-97"/>
      <point x="271" y="24" type="curve" smooth="yes"/>
      <point x="429" y="461" type="line"/>
      <point x="338" y="461" type="line"/>
      <point x="322" y="389" type="line"/>
      <point x="224" y="108" type="line"/>
      <point x="217" y="108" type="line"/>
      <point x="119" y="399" type="line"/>
      <point x="104" y="464" type="line"/>
    </contour>
    <contour>
      <point x="221" y="461" type="move" name="top"/>
    </contour>
  </outline>
</glyph>
<glyph name="currency" format="1">
  <advance width="435"/>
  <unicode hex="00A4"/>
  <outline>
    <contour>
      <point x="354" y="549" type="line"/>
      <point x="292" y="481" type="line"/>
      <point x="271" y="495"/>
      <point x="245" y="504"/>
      <point x="218" y="504" type="curve" smooth="yes"/>
      <point x="189" y="504"/>
      <point x="162" y="495"/>
      <point x="140" y="479" type="curve"/>
      <point x="76" y="547" type="line"/>
      <point x="66" y="548" type="line"/>
      <point x="23" y="502" type="line"/>
      <point x="23" y="492" type="line"/>
      <point x="92" y="431" type="line"/>
      <point x="77" y="409"/>
      <point x="68" y="383"/>
      <point x="68" y="354" type="curve" smooth="yes"/>
      <point x="68" y="326"/>
      <point x="77" y="297"/>
      <point x="93" y="275" type="curve"/>
      <point x="26" y="214" type="line"/>
      <point x="25" y="204" type="line"/>
      <point x="71" y="160" type="line"/>
      <point x="81" y="160" type="line"/>
      <point x="142" y="228" type="line"/>
      <point x="163" y="213"/>
      <point x="190" y="204"/>
      <point x="218" y="204" type="curve" smooth="yes"/>
      <point x="246" y="204"/>
      <point x="275" y="214"/>
      <point x="297" y="230" type="curve"/>
      <point x="359" y="162" type="line"/>
      <point x="370" y="161" type="line"/>
      <point x="414" y="208" type="line"/>
      <point x="412" y="218" type="line"/>
      <point x="344" y="279" type="line"/>
      <point x="359" y="301"/>
      <point x="367" y="327"/>
      <point x="367" y="354" type="curve" smooth="yes"/>
      <point x="367" y="384"/>
      <point x="358" y="410"/>
      <point x="342" y="433" type="curve"/>
      <point x="410" y="496" type="line"/>
      <point x="410" y="506" type="line"/>
      <point x="364" y="550" type="line"/>
    </contour>
    <contour>
      <point x="271" y="447"/>
      <point x="311" y="407"/>
      <point x="311" y="354" type="curve" smooth="yes"/>
      <point x="311" y="301"/>
      <point x="271" y="262"/>
      <point x="217" y="262" type="curve" smooth="yes"/>
      <point x="165" y="262"/>
      <point x="125" y="301"/>
      <point x="125" y="354" type="curve" smooth="yes"/>
      <point x="125" y="407"/>
      <point x="165" y="447"/>
      <point x="217" y="447" type="curve" smooth="yes"/>
    </contour>
  </outline>
</glyph>
<glyph name="yen" format="1">
  <advance width="500"/>
  <unicode hex="00A5"/>
  <outline>
    <contour>
      <point x="27" y="165" type="line"/>
      <point x="24" y="122" type="line"/>
      <point x="28" y="117" type="line"/>
      <point x="478" y="117" type="line"/>
      <point x="481" y="160" type="line"/>
      <point x="477" y="165" type="line"/>
    </contour>
    <contour>
      <point x="27" y="300" type="line"/>
      <point x="24" y="257" type="line"/>
      <point x="28" y="251" type="line"/>
      <point x="201" y="251" type="line"/>
      <point x="193" y="300" type="line"/>
    </contour>
    <contour>
      <point x="303" y="300" type="line"/>
      <point x="297" y="251" type="line"/>
      <point x="477" y="251" type="line"/>
      <point x="482" y="295" type="line"/>
      <point x="476" y="300" type="line"/>
    </contour>
    <contour>
      <point x="392" y="500" type="line"/>
      <point x="377" y="466" type="line"/>
      <point x="254" y="263" type="line"/>
      <point x="248" y="263" type="line"/>
      <point x="135" y="469" type="line"/>
      <point x="124" y="500" type="line"/>
      <point x="33" y="500" type="line"/>
      <point x="233" y="124" type="line"/>
      <point x="261" y="124" type="line"/>
      <point x="481" y="500" type="line"/>
    </contour>
    <contour>
      <point x="208" y="214" type="line"/>
      <point x="210" y="141" type="line"/>
      <point x="206" y="0" type="line"/>
      <point x="291" y="0" type="line"/>
      <point x="288" y="141" type="line"/>
      <point x="290" y="214" type="line"/>
    </contour>
    <contour>
      <point x="260" y="501" type="move" name="top"/>
    </contour>
  </outline>
</glyph>
<glyph name="macron" format="1">
  <advance width="389"/>
  <unicode hex="00AF"/>
  <outline>
    <contour>
      <point x="54" y="645" type="line"/>
      <point x="48" y="587" type="line"/>
      <point x="55" y="579" type="line"/>
      <point x="337" y="579" type="line"/>
      <point x="342" y="638" type="line"/>
      <point x="336" y="645" type="line"/>
    </contour>
    <contour>
      <point x="195" y="461" type="move" name="_top"/>
    </contour>
  </outline>
</glyph>
<glyph name="cedilla" format="1">
  <advance width="389"/>
  <unicode hex="00B8"/>
  <outline>
    <contour>
      <point x="170" y="22" type="line"/>
      <point x="146" y="-73" type="line"/>
      <point x="194" y="-102" type="line" smooth="yes"/>
      <point x="206" y="-107"/>
      <point x="214" y="-113"/>
      <point x="214" y="-124" type="curve" smooth="yes"/>
      <point x="214" y="-140"/>
      <point x="202" y="-149"/>
      <point x="185" y="-149" type="curve" smooth="yes"/>
      <point x="163" y="-149"/>
      <point x="146" y="-137"/>
      <point x="128" y="-118" type="curve"/>
      <point x="122" y="-120" type="line"/>
      <point x="114" y="-167" type="line"/>
      <point x="132" y="-183"/>
      <point x="157" y="-197"/>
      <point x="191" y="-197" type="curve" smooth="yes"/>
      <point x="243" y="-197"/>
      <point x="278" y="-168"/>
      <point x="278" y="-127" type="curve" smooth="yes"/>
      <point x="278" y="-104"/>
      <point x="268" y="-86"/>
      <point x="238" y="-70" type="curve" smooth="yes"/>
      <point x="204" y="-50" type="line"/>
      <point x="224" y="22" type="line"/>
    </contour>
    <contour>
      <point x="190" y="-0" type="move" name="_bottom"/>
    </contour>
  </outline>
</glyph>
<glyph name="multiply" format="1">
  <advance width="480"/>
  <unicode hex="00D7"/>
  <outline>
    <contour>
      <point x="240" y="313" type="line"/>
      <point x="117" y="434" type="line"/>
      <point x="70" y="394" type="line"/>
      <point x="70" y="383" type="line"/>
      <point x="190" y="263" type="line"/>
      <point x="70" y="142" type="line"/>
      <point x="70" y="133" type="line"/>
      <point x="117" y="91" type="line"/>
      <point x="240" y="213" type="line"/>
      <point x="361" y="92" type="line"/>
      <point x="410" y="133" type="line"/>
      <point x="410" y="143" type="line"/>
      <point x="289" y="263" type="line"/>
      <point x="410" y="383" type="line"/>
      <point x="410" y="394" type="line"/>
      <point x="361" y="434" type="line"/>
    </contour>
  </outline>
</glyph>
<glyph name="ae" format="1">
  <advance width="685"/>
  <unicode hex="00E6"/>
  <outline>
    <contour>
      <point x="324" y="209" type="line"/>
      <point x="646" y="256" type="line"/>
      <point x="656" y="270" type="line"/>
      <point x="629" y="315" type="line"/>
      <point x="324" y="264" type="line"/>
    </contour>
    <contour>
      <point x="324" y="264" type="line"/>
      <point x="132" y="237" type="line" smooth="yes"/>
      <point x="68" y="228"/>
      <point x="35" y="184"/>
      <point x="35" y="123" type="curve" smooth="yes"/>
      <point x="35" y="40"/>
      <point x="96" y="-7"/>
      <point x="192" y="-8" type="curve"/>
      <point x="245" y="12"/>
      <point x="288" y="44"/>
      <point x="322" y="85" type="curve"/>
      <point x="356" y="24"/>
      <point x="414" y="-9"/>
      <point x="490" y="-9" type="curve" smooth="yes"/>
      <point x="533" y="-9"/>
      <point x="584" y="4"/>
      <point x="623" y="25" type="curve"/>
      <point x="636" y="104" type="line"/>
      <point x="626" y="110" type="line"/>
      <point x="586" y="83"/>
      <point x="539" y="67"/>
      <point x="497" y="67" type="curve" smooth="yes"/>
      <point x="410" y="67"/>
      <point x="369" y="125"/>
      <point x="369" y="239" type="curve"/>
      <point x="369" y="275" type="line"/>
      <point x="369" y="344"/>
      <point x="417" y="400"/>
      <point x="480" y="400" type="curve" smooth="yes"/>
      <point x="532" y="400"/>
      <point x="566" y="365"/>
      <point x="565" y="299" type="curve"/>
      <point x="656" y="270" type="line"/>
      <point x="663" y="401"/>
      <point x="593" y="469"/>
      <point x="492" y="469" type="curve" smooth="yes"/>
      <point x="437" y="469"/>
      <point x="385" y="447"/>
      <point x="350" y="407" type="curve"/>
      <point x="331" y="443"/>
      <point x="292" y="470"/>
      <point x="229" y="470" type="curve" smooth="yes"/>
      <point x="171" y="470"/>
      <point x="110" y="449"/>
      <point x="55" y="410" type="curve"/>
      <point x="68" y="339" type="line"/>
      <point x="77" y="334" type="line"/>
      <point x="132" y="378"/>
      <point x="177" y="398"/>
      <point x="216" y="398" type="curve" smooth="yes"/>
      <point x="263" y="398"/>
      <point x="288" y="373"/>
      <point x="288" y="323" type="curve" smooth="yes"/>
      <point x="288" y="233" type="line" smooth="yes"/>
      <point x="288" y="198"/>
      <point x="290" y="174"/>
      <point x="296" y="137" type="curve"/>
      <point x="248" y="89"/>
      <point x="222" y="73"/>
      <point x="190" y="73" type="curve" smooth="yes"/>
      <point x="153" y="73"/>
      <point x="126" y="93"/>
      <point x="126" y="133" type="curve" smooth="yes"/>
      <point x="126" y="159"/>
      <point x="137" y="176"/>
      <point x="172" y="182" type="curve" smooth="yes"/>
      <point x="324" y="209" type="line"/>
    </contour>
    <contour>
      <point x="346" y="461" type="move" name="top"/>
    </contour>
  </outline>
</glyph>
<glyph name="eth" format="1">
  <advance width="492"/>
  <unicode hex="00F0"/>
  <outline>
    <contour>
      <point x="123" y="707" type="line"/>
      <point x="62" y="661" type="line"/>
      <point x="62" y="648" type="line"/>
      <point x="272" y="559"/>
      <point x="362" y="439"/>
      <point x="362" y="239" type="curve" smooth="yes"/>
      <point x="362" y="114"/>
      <point x="326" y="59"/>
      <point x="248" y="59" type="curve" smooth="yes"/>
      <point x="172" y="59"/>
      <point x="128" y="111"/>
      <point x="128" y="224" type="curve" smooth="yes"/>
      <point x="128" y="335"/>
      <point x="171" y="390"/>
      <point x="251" y="390" type="curve" smooth="yes"/>
      <point x="295" y="390"/>
      <point x="330" y="374"/>
      <point x="361" y="341" type="curve"/>
      <point x="401" y="396" type="line"/>
      <point x="356" y="440"/>
      <point x="309" y="459"/>
      <point x="246" y="459" type="curve" smooth="yes"/>
      <point x="113" y="459"/>
      <point x="39" y="372"/>
      <point x="39" y="224" type="curve" smooth="yes"/>
      <point x="39" y="74"/>
      <point x="116" y="-9"/>
      <point x="241" y="-9" type="curve" smooth="yes"/>
      <point x="376" y="-9"/>
      <point x="451" y="84"/>
      <point x="451" y="247" type="curve" smooth="yes"/>
      <point x="451" y="445"/>
      <point x="340" y="610"/>
      <point x="130" y="707" type="curve"/>
    </contour>
    <contour>
      <point x="78" y="536" type="line"/>
      <point x="99" y="492" type="line"/>
      <point x="108" y="488" type="line"/>
      <point x="400" y="644" type="line" smooth="yes"/>
      <point x="379" y="689" type="line"/>
      <point x="370" y="692" type="line"/>
    </contour>
  </outline>
</glyph>
<glyph name="oslash" format="1">
  <advance width="492"/>
  <unicode hex="00F8"/>
  <outline>
    <contour>
      <point x="381" y="559" type="line"/>
      <point x="45" y="-83" type="line"/>
      <point x="48" y="-93" type="line"/>
      <point x="102" y="-119" type="line"/>
      <point x="436" y="523" type="line"/>
      <point x="431" y="534" type="line"/>
    </contour>
    <component base="o"/>
    <contour>
      <point x="246" y="461" type="move" name="top"/>
    </contour>
  </outline>
</glyph>
<glyph name="dcroat" format="1">
  <advance width="524"/>
  <unicode hex="0111"/>
  <outline>
    <contour>
      <point x="219" y="610" type="line"/>
      <point x="214" y="558" type="line"/>
      <point x="221" y="551" type="line"/>
      <point x="510" y="551" type="line"/>
      <point x="515" y="602" type="line"/>
      <point x="507" y="610" type="line"/>
    </contour>
    <component base="d"/>
  </outline>
</glyph>
<glyph name="hbar" format="1">
  <advance width="521"/>
  <unicode hex="0127"/>
  <outline>
    <contour>
      <point x="5" y="610" type="line"/>
      <point x="1" y="558" type="line"/>
      <point x="8" y="551" type="line"/>
      <point x="297" y="551" type="line"/>
      <point x="301" y="602" type="line"/>
      <point x="293" y="610" type="line"/>
    </contour>
    <component base="h" xOffset="-2"/>
  </outline>
</glyph>
<glyph name="iogonek" format="1">
  <advance width="245"/>
  <unicode hex="012F"/>
  <outline>
    <contour>
      <point x="72" y="0" type="line"/>
      <point x="32" y="-56"/>
      <point x="21" y="-84"/>
      <point x="21" y="-115" type="curve" smooth="yes"/>
      <point x="21" y="-165"/>
      <point x="53" y="-197"/>
      <point x="102" y="-197" type="curve" smooth="yes"/>
      <point x="130" y="-197"/>
      <point x="155" y="-186"/>
      <point x="179" y="-165" type="curve"/>
      <point x="170" y="-111" type="line"/>
      <point x="162" y="-111" type="line"/>
      <point x="148" y="-125"/>
      <point x="132" y="-134"/>
      <point x="116" y="-134" type="curve" smooth="yes"/>
      <point x="96" y="-134"/>
      <point x="83" y="-122"/>
      <point x="83" y="-99" type="curve" smooth="yes"/>
      <point x="83" y="-78"/>
      <point x="94" y="-52"/>
      <point x="131" y="2" type="curve"/>
    </contour>
    <component base="dotlessi"/>
    <component base="dotaccent"/>
  </outline>
</glyph>
<glyph name="kgreenlandic" format="1">
  <advance width="472"/>
  <unicode hex="0138"/>
  <outline>
    <contour>
      <point x="342" y="461" type="line"/>
      <point x="317" y="417" type="line"/>
      <point x="185" y="249" type="line"/>
      <point x="185" y="242" type="line"/>
      <point x="238" y="157"/>
      <point x="297" y="75"/>
      <point x="359" y="-5" type="curve"/>
      <point x="371" y="-9" type="line"/>
      <point x="402" y="-5"/>
      <point x="433" y="-2"/>
      <point x="464" y="6" type="curve"/>
      <point x="464" y="18" type="line"/>
      <point x="403" y="93"/>
      <point x="340" y="172"/>
      <point x="284" y="251" type="curve"/>
      <point x="453" y="461" type="line"/>
    </contour>
    <component base="dotlessi"/>
    <contour>
      <point x="258" y="0" type="move" name="bottom"/>
    </contour>
  </outline>
</glyph>
<glyph name="lcaron" format="1">
  <advance width="279"/>
  <unicode hex="013E"/>
  <outline>
    <contour>
      <point x="215" y="124" type="move"/>
    </contour>
    <component base="l"/>
    <component base="caron.alt" xOffset="76" yOffset="-54"/>
  </outline>
</glyph>
<glyph name="eng" format="1">
  <advance width="531"/>
  <unicode hex="014B"/>
  <outline>
    <contour>
      <point x="258" y="455"/>
      <point x="215" y="431"/>
      <point x="175" y="396" type="curve"/>
      <point x="157" y="396" type="line"/>
      <point x="157" y="313" type="line"/>
      <point x="200" y="358"/>
      <point x="244" y="384"/>
      <point x="288" y="384" type="curve" smooth="yes"/>
      <point x="336" y="384"/>
      <point x="359" y="353"/>
      <point x="359" y="303" type="curve" smooth="yes"/>
      <point x="360" y="18" type="line" smooth="yes"/>
      <point x="360" y="-59"/>
      <point x="336" y="-100"/>
      <point x="269" y="-138" type="curve"/>
      <point x="269" y="-149" type="line"/>
      <point x="306" y="-194" type="line"/>
      <point x="414" y="-142"/>
      <point x="456" y="-83"/>
      <point x="456" y="22" type="curve"/>
      <point x="450" y="202" type="line"/>
      <point x="453" y="332" type="line" smooth="yes"/>
      <point x="454" y="418"/>
      <point x="401" y="467"/>
      <point x="298" y="467" type="curve"/>
    </contour>
    <contour>
      <point x="72" y="454" type="line"/>
      <point x="77" y="193" type="line"/>
      <point x="71" y="0" type="line"/>
      <point x="173" y="0" type="line"/>
      <point x="167" y="202" type="line"/>
      <point x="169" y="463" type="line"/>
    </contour>
  </outline>
</glyph>
<glyph name="oe" format="1">
  <advance width="772"/>
  <unicode hex="0153"/>
  <outline>
    <contour>
      <point x="111" y="469"/>
      <point x="33" y="381"/>
      <point x="33" y="225" type="curve" smooth="yes"/>
      <point x="33" y="75"/>
      <point x="106" y="-9"/>
      <point x="233" y="-9" type="curve" smooth="yes"/>
      <point x="364" y="-9"/>
      <point x="435" y="80"/>
      <point x="435" y="236" type="curve" smooth="yes"/>
      <point x="435" y="387"/>
      <point x="368" y="469"/>
      <point x="243" y="469" type="curve" smooth="yes"/>
    </contour>
    <contour>
      <point x="320" y="399"/>
      <point x="358" y="341"/>
      <point x="358" y="215" type="curve" smooth="yes"/>
      <point x="358" y="110"/>
      <point x="320" y="61"/>
      <point x="245" y="61" type="curve" smooth="yes"/>
      <point x="170" y="61"/>
      <point x="132" y="118"/>
      <point x="132" y="245" type="curve" smooth="yes"/>
      <point x="132" y="348"/>
      <point x="170" y="399"/>
      <point x="245" y="399" type="curve" smooth="yes"/>
    </contour>
    <contour>
      <point x="442" y="469"/>
      <point x="362" y="378"/>
      <point x="362" y="228" type="curve" smooth="yes"/>
      <point x="362" y="82"/>
      <point x="436" y="-9"/>
      <point x="568" y="-9" type="curve" smooth="yes"/>
      <point x="615" y="-9"/>
      <point x="665" y="4"/>
      <point x="708" y="25" type="curve"/>
      <point x="720" y="106" type="line"/>
      <point x="710" y="112" type="line"/>
      <point x="666" y="85"/>
      <point x="617" y="70"/>
      <point x="575" y="70" type="curve" smooth="yes"/>
      <point x="482" y="70"/>
      <point x="440" y="130"/>
      <point x="440" y="233" type="curve" smooth="yes"/>
      <point x="440" y="339"/>
      <point x="486" y="399"/>
      <point x="565" y="399" type="curve" smooth="yes"/>
      <point x="614" y="399"/>
      <point x="648" y="370"/>
      <point x="648" y="305" type="curve"/>
      <point x="646" y="293" type="line"/>
      <point x="429" y="287" type="line"/>
      <point x="429" y="226" type="line"/>
      <point x="717" y="226" type="line"/>
      <point x="735" y="242" type="line"/>
      <point x="737" y="254"/>
      <point x="738" y="278"/>
      <point x="738" y="292" type="curve" smooth="yes"/>
      <point x="738" y="402"/>
      <point x="677" y="469"/>
      <point x="571" y="469" type="curve" smooth="yes"/>
    </contour>
    <contour>
      <point x="474" y="461" type="move" name="top"/>
    </contour>
  </outline>
</glyph>
<glyph name="Ohorn" format="1">
  <advance width="644"/>
  <unicode hex="01A0"/>
  <outline>
    <contour>
      <point x="567" y="769"/>
      <point x="548" y="761"/>
      <point x="533" y="749" type="curve"/>
      <point x="531" y="741" type="line"/>
      <point x="552" y="721"/>
      <point x="563" y="696"/>
      <point x="563" y="673" type="curve" smooth="yes"/>
      <point x="563" y="637"/>
      <point x="533" y="617"/>
      <point x="496" y="617" type="curve" smooth="yes"/>
      <point x="451" y="617"/>
      <point x="413" y="650"/>
      <point x="322" y="650" type="curve" smooth="yes"/>
      <point x="143" y="650"/>
      <point x="34" y="530"/>
      <point x="34" y="314" type="curve" smooth="yes"/>
      <point x="34" y="109"/>
      <point x="133" y="-9"/>
      <point x="312" y="-9" type="curve" smooth="yes"/>
      <point x="499" y="-9"/>
      <point x="605" y="118"/>
      <point x="605" y="330" type="curve" smooth="yes"/>
      <point x="605" y="435"/>
      <point x="579" y="514"/>
      <point x="526" y="568" type="curve"/>
      <point x="592" y="574"/>
      <point x="643" y="614"/>
      <point x="643" y="680" type="curve" smooth="yes"/>
      <point x="643" y="732"/>
      <point x="613" y="769"/>
      <point x="583" y="769" type="curve" smooth="yes"/>
    </contour>
    <contour>
      <point x="441" y="565"/>
      <point x="498" y="489"/>
      <point x="498" y="316" type="curve" smooth="yes"/>
      <point x="498" y="149"/>
      <point x="439" y="74"/>
      <point x="318" y="74" type="curve" smooth="yes"/>
      <point x="197" y="74"/>
      <point x="140" y="152"/>
      <point x="140" y="326" type="curve" smooth="yes"/>
      <point x="140" y="490"/>
      <point x="197" y="565"/>
      <point x="319" y="565" type="curve" smooth="yes"/>
    </contour>
    <contour>
      <point x="320" y="642" type="move" name="top"/>
    </contour>
  </outline>
</glyph>
<glyph name="ohorn" format="1">
  <advance width="493"/>
  <unicode hex="01A1"/>
  <outline>
    <contour>
      <point x="451" y="589"/>
      <point x="434" y="581"/>
      <point x="416" y="567" type="curve"/>
      <point x="413" y="557" type="line"/>
      <point x="434" y="537"/>
      <point x="446" y="516"/>
      <point x="446" y="493" type="curve" smooth="yes"/>
      <point x="446" y="462"/>
      <point x="424" y="443"/>
      <point x="387" y="443" type="curve" smooth="yes"/>
      <point x="347" y="443"/>
      <point x="318" y="470"/>
      <point x="252" y="470" type="curve"/>
      <point x="114" y="470"/>
      <point x="37" y="381"/>
      <point x="37" y="225" type="curve" smooth="yes"/>
      <point x="37" y="74"/>
      <point x="109" y="-9"/>
      <point x="241" y="-9" type="curve" smooth="yes"/>
      <point x="377" y="-9"/>
      <point x="454" y="80"/>
      <point x="454" y="237" type="curve"/>
      <point x="454" y="302"/>
      <point x="441" y="353"/>
      <point x="411" y="391" type="curve"/>
      <point x="473" y="392"/>
      <point x="526" y="440"/>
      <point x="526" y="507" type="curve" smooth="yes"/>
      <point x="526" y="555"/>
      <point x="494" y="589"/>
      <point x="466" y="589" type="curve" smooth="yes"/>
    </contour>
    <contour>
      <point x="321" y="399"/>
      <point x="358" y="344"/>
      <point x="358" y="225" type="curve" smooth="yes"/>
      <point x="358" y="113"/>
      <point x="320" y="61"/>
      <point x="245" y="61" type="curve" smooth="yes"/>
      <point x="169" y="61"/>
      <point x="132" y="115"/>
      <point x="132" y="236" type="curve" smooth="yes"/>
      <point x="132" y="345"/>
      <point x="170" y="399"/>
      <point x="245" y="399" type="curve" smooth="yes"/>
    </contour>
    <contour>
      <point x="245" y="461" type="move" name="top"/>
    </contour>
  </outline>
</glyph>
<glyph name="Uhorn" format="1">
  <advance width="641"/>
  <unicode hex="01AF"/>
  <outline>
    <contour>
      <point x="574" y="781"/>
      <point x="558" y="773"/>
      <point x="541" y="761" type="curve"/>
      <point x="538" y="752" type="line"/>
      <point x="561" y="732"/>
      <point x="571" y="713"/>
      <point x="571" y="692" type="curve" smooth="yes"/>
      <point x="571" y="659"/>
      <point x="549" y="642"/>
      <point x="507" y="642" type="curve"/>
      <point x="520" y="589" type="line"/>
      <point x="598" y="596"/>
      <point x="651" y="641"/>
      <point x="651" y="700" type="curve" smooth="yes"/>
      <point x="651" y="747"/>
      <point x="619" y="781"/>
      <point x="590" y="781" type="curve" smooth="yes"/>
    </contour>
    <component base="U"/>
    <contour>
      <point x="318" y="642" type="move" name="top"/>
    </contour>
  </outline>
</glyph>
<glyph name="uhorn" format="1">
  <advance width="524"/>
  <unicode hex="01B0"/>
  <outline>
    <contour>
      <point x="455" y="611"/>
      <point x="437" y="602"/>
      <point x="420" y="588" type="curve"/>
      <point x="418" y="579" type="line"/>
      <point x="439" y="558"/>
      <point x="449" y="536"/>
      <point x="449" y="516" type="curve" smooth="yes"/>
      <point x="449" y="485"/>
      <point x="427" y="467"/>
      <point x="376" y="460" type="curve" smooth="yes"/>
      <point x="340" y="454" type="line"/>
      <point x="340" y="129" type="line"/>
      <point x="305" y="96"/>
      <point x="267" y="78"/>
      <point x="231" y="78" type="curve" smooth="yes"/>
      <point x="184" y="78"/>
      <point x="161" y="108"/>
      <point x="162" y="157" type="curve" smooth="yes"/>
      <point x="167" y="463" type="line"/>
      <point x="66" y="454" type="line"/>
      <point x="70" y="254" type="line"/>
      <point x="68" y="129" type="line" smooth="yes"/>
      <point x="67" y="43"/>
      <point x="121" y="-6"/>
      <point x="222" y="-6" type="curve"/>
      <point x="262" y="5"/>
      <point x="302" y="28"/>
      <point x="341" y="63" type="curve"/>
      <point x="348" y="63" type="line"/>
      <point x="357" y="22"/>
      <point x="381" y="-3"/>
      <point x="425" y="-6" type="curve" smooth="yes"/>
      <point x="447" y="-5"/>
      <point x="469" y="4"/>
      <point x="487" y="15" type="curve"/>
      <point x="497" y="71" type="line"/>
      <point x="488" y="78" type="line"/>
      <point x="474" y="75"/>
      <point x="465" y="74"/>
      <point x="457" y="74" type="curve" smooth="yes"/>
      <point x="438" y="74"/>
      <point x="430" y="82"/>
      <point x="430" y="108" type="curve" smooth="yes"/>
      <point x="436" y="422" type="line"/>
      <point x="494" y="441"/>
      <point x="529" y="479"/>
      <point x="529" y="531" type="curve" smooth="yes"/>
      <point x="529" y="577"/>
      <point x="498" y="611"/>
      <point x="471" y="611" type="curve" smooth="yes"/>
    </contour>
    <contour>
      <point x="241" y="461" type="move" name="top"/>
    </contour>
  </outline>
</glyph>
<glyph name="Aringacute" format="1">
  <advance width="587"/>
  <unicode hex="01FA"/>
  <outline>
    <contour>
      <point x="246" y="640" type="line"/>
      <point x="11" y="0" type="line"/>
      <point x="114" y="0" type="line"/>
      <point x="130" y="76" type="line"/>
      <point x="293" y="533" type="line"/>
      <point x="301" y="533" type="line"/>
      <point x="447" y="71" type="line"/>
      <point x="462" y="0" type="line"/>
      <point x="567" y="0" type="line"/>
      <point x="353" y="640" type="line"/>
    </contour>
    <contour>
      <point x="291" y="240" type="line"/>
      <point x="138" y="243" type="line"/>
      <point x="138" y="158" type="line"/>
      <point x="283" y="161" type="line"/>
      <point x="440" y="159" type="line"/>
      <point x="440" y="243" type="line"/>
    </contour>
    <contour>
      <point x="293" y="293" type="move"/>
    </contour>
    <component base="ringacute" xOffset="106" yOffset="83"/>
  </outline>
</glyph>
<glyph name="ring" format="1">
  <advance width="389"/>
  <unicode hex="02DA"/>
  <outline>
    <contour>
      <point x="138" y="708"/>
      <point x="105" y="675"/>
      <point x="105" y="620" type="curve" smooth="yes"/>
      <point x="105" y="564"/>
      <point x="140" y="533"/>
      <point x="191" y="533" type="curve" smooth="yes"/>
      <point x="244" y="533"/>
      <point x="283" y="565"/>
      <point x="283" y="623" type="curve" smooth="yes"/>
      <point x="283" y="673"/>
      <point x="253" y="708"/>
      <point x="195" y="708" type="curve" smooth="yes"/>
    </contour>
    <contour>
      <point x="224" y="662"/>
      <point x="238" y="645"/>
      <point x="238" y="620" type="curve" smooth="yes"/>
      <point x="238" y="591"/>
      <point x="220" y="578"/>
      <point x="195" y="578" type="curve" smooth="yes"/>
      <point x="168" y="578"/>
      <point x="151" y="592"/>
      <point x="151" y="622" type="curve" smooth="yes"/>
      <point x="151" y="647"/>
      <point x="165" y="662"/>
      <point x="193" y="662" type="curve" smooth="yes"/>
    </contour>
    <contour>
      <point x="195" y="461" type="move" name="_top"/>
    </contour>
  </outline>
</glyph>
<glyph name="tildecomb" format="1">
  <advance width="389"/>
  <unicode hex="0303"/>
  <outline>
    <contour>
      <point x="319" y="682" type="line"/>
      <point x="294" y="655"/>
      <point x="277" y="633"/>
      <point x="259" y="633" type="curve" smooth="yes"/>
      <point x="234" y="633"/>
      <point x="149" y="664"/>
      <point x="106" y="669" type="curve"/>
      <point x="95" y="665" type="line"/>
      <point x="29" y="588" type="line"/>
      <point x="29" y="579" type="line"/>
      <point x="60" y="547" type="line"/>
      <point x="70" y="547" type="line"/>
      <point x="94" y="573"/>
      <point x="111" y="596"/>
      <point x="129" y="596" type="curve" smooth="yes"/>
      <point x="155" y="596"/>
      <point x="239" y="565"/>
      <point x="282" y="559" type="curve"/>
      <point x="293" y="563" type="line"/>
      <point x="359" y="641" type="line"/>
      <point x="359" y="650" type="line"/>
      <point x="328" y="682" type="line"/>
    </contour>
    <contour>
      <point x="195" y="461" type="move" name="_top"/>
    </contour>
  </outline>
</glyph>
<glyph name="pi" format="1">
  <advance width="646"/>
  <unicode hex="03C0"/>
  <outline>
    <contour>
      <point x="481" y="501" type="line"/>
      <point x="102" y="501" type="line"/>
      <point x="86" y="494" type="line"/>
      <point x="2" y="399" type="line"/>
      <point x="2" y="388" type="line"/>
      <point x="32" y="349" type="line"/>
      <point x="44" y="349" type="line"/>
      <point x="80" y="385"/>
      <point x="107" y="419"/>
      <point x="130" y="419" type="curve" smooth="yes"/>
      <point x="409" y="419" type="line"/>
      <point x="409" y="99" type="line" smooth="yes"/>
      <point x="409" y="20"/>
      <point x="447" y="-6"/>
      <point x="494" y="-6" type="curve" smooth="yes"/>
      <point x="513" y="-6"/>
      <point x="535" y="2"/>
      <point x="558" y="15" type="curve"/>
      <point x="570" y="72" type="line"/>
      <point x="561" y="78" type="line"/>
      <point x="549" y="71"/>
      <point x="536" y="68"/>
      <point x="526" y="68" type="curve" smooth="yes"/>
      <point x="507" y="68"/>
      <point x="499" y="82"/>
      <point x="499" y="112" type="curve" smooth="yes"/>
      <point x="502" y="419" type="line"/>
      <point x="598" y="418" type="line"/>
      <point x="606" y="493" type="line"/>
      <point x="599" y="502" type="line"/>
    </contour>
    <contour>
      <point x="159" y="472" type="line"/>
      <point x="163" y="193" type="line"/>
      <point x="159" y="-92" type="line"/>
      <point x="258" y="-92" type="line"/>
      <point x="255" y="202" type="line"/>
      <point x="255" y="478" type="line"/>
    </contour>
  </outline>
</glyph>
<glyph name="adotbelow" format="1">
  <advance width="470"/>
  <unicode hex="1EA1"/>
  <outline>
    <component base="a"/>
    <component base="dotbelowcomb" xOffset="110"/>
    <contour>
      <point x="227" y="461" type="move" name="top"/>
    </contour>
  </outline>
</glyph>
<glyph name="Odotbelow" format="1">
  <advance width="639"/>
  <unicode hex="1ECC"/>
  <outline>
    <component base="O"/>
    <component base="dotbelowcomb" xOffset="203"/>
    <contour>
      <point x="320" y="642" type="move" name="top"/>
    </contour>
  </outline>
</glyph>
<glyph name="ohorngrave" format="1">
  <advance width="493"/>
  <unicode hex="1EDD"/>
  <outline>
    <contour>
      <point x="143" y="707" type="line"/>
      <point x="106" y="653" type="line"/>
      <point x="108" y="643" type="line"/>
      <point x="171" y="597"/>
      <point x="228" y="558"/>
      <point x="288" y="519" type="curve"/>
      <point x="299" y="520" type="line"/>
      <point x="325" y="560" type="line"/>
      <point x="265" y="608"/>
      <point x="212" y="653"/>
      <point x="154" y="708" type="curve"/>
    </contour>
    <component base="ohorn"/>
  </outline>
</glyph>
<glyph name="dagger" format="1">
  <advance width="490"/>
  <unicode hex="2020"/>
  <outline>
    <contour>
      <point x="208" y="585" type="line"/>
      <point x="208" y="282" type="line"/>
      <point x="208" y="-86" type="line"/>
      <point x="215" y="-94" type="line"/>
      <point x="279" y="-90" type="line"/>
      <point x="279" y="288" type="line"/>
      <point x="280" y="585" type="line"/>
      <point x="274" y="590" type="line"/>
    </contour>
    <contour>
      <point x="47" y="407" type="line"/>
      <point x="41" y="345" type="line"/>
      <point x="48" y="337" type="line"/>
      <point x="444" y="337" type="line"/>
      <point x="450" y="400" type="line"/>
      <point x="442" y="407" type="line"/>
    </contour>
  </outline>
</glyph>
<glyph name="franc" format="1">
  <advance width="398"/>
  <unicode hex="20A3"/>
  <outline>
    <contour>
      <point x="84" y="500" type="line"/>
      <point x="87" y="150" type="line"/>
      <point x="84" y="0" type="line"/>
      <point x="168" y="0" type="line"/>
      <point x="164" y="158" type="line"/>
      <point x="169" y="500" type="line"/>
    </contour>
    <contour>
      <point x="22" y="139" type="line"/>
      <point x="19" y="98" type="line"/>
      <point x="23" y="94" type="line"/>
      <point x="281" y="94" type="line"/>
      <point x="284" y="134" type="line"/>
      <point x="280" y="139" type="line"/>
    </contour>
    <contour>
      <point x="254" y="281" type="line"/>
      <point x="146" y="281" type="line"/>
      <point x="142" y="221" type="line"/>
      <point x="146" y="215" type="line"/>
      <point x="247" y="215" type="line"/>
      <point x="346" y="214" type="line"/>
      <point x="352" y="275" type="line"/>
      <point x="347" y="282" type="line"/>
    </contour>
    <contour>
      <point x="141" y="500" type="line"/>
      <point x="139" y="440" type="line"/>
      <point x="141" y="434" type="line"/>
      <point x="263" y="434" type="line"/>
      <point x="390" y="432" type="line"/>
      <point x="398" y="492" type="line"/>
      <point x="391" y="500" type="line"/>
    </contour>
  </outline>
</glyph>
<glyph name="Euro" format="1">
  <advance width="478"/>
  <unicode hex="20AC"/>
  <outline>
    <contour>
      <point x="186" y="505"/>
      <point x="105" y="433"/>
      <point x="86" y="304" type="curve"/>
      <point x="174" y="304" type="line"/>
      <point x="186" y="390"/>
      <point x="234" y="435"/>
      <point x="314" y="435" type="curve" smooth="yes"/>
      <point x="354" y="435"/>
      <point x="396" y="422"/>
      <point x="428" y="401" type="curve"/>
      <point x="435" y="403" type="line"/>
      <point x="451" y="472" type="line"/>
      <point x="413" y="492"/>
      <point x="366" y="505"/>
      <point x="319" y="505" type="curve" smooth="yes"/>
    </contour>
    <contour>
      <point x="86" y="304" type="line"/>
      <point x="83" y="283"/>
      <point x="82" y="264"/>
      <point x="82" y="242" type="curve" smooth="yes"/>
      <point x="82" y="220"/>
      <point x="84" y="201"/>
      <point x="86" y="183" type="curve"/>
      <point x="176" y="183" type="line"/>
      <point x="172" y="202"/>
      <point x="171" y="225"/>
      <point x="171" y="250" type="curve" smooth="yes"/>
      <point x="171" y="270"/>
      <point x="172" y="288"/>
      <point x="174" y="304" type="curve"/>
    </contour>
    <contour>
      <point x="86" y="183" type="line"/>
      <point x="104" y="60"/>
      <point x="178" y="-6"/>
      <point x="308" y="-6" type="curve" smooth="yes"/>
      <point x="350" y="-6"/>
      <point x="396" y="5"/>
      <point x="438" y="28" type="curve"/>
      <point x="445" y="94" type="line"/>
      <point x="435" y="100" type="line"/>
      <point x="400" y="77"/>
      <point x="352" y="64"/>
      <point x="313" y="64" type="curve" smooth="yes"/>
      <point x="238" y="64"/>
      <point x="192" y="105"/>
      <point x="176" y="183" type="curve"/>
    </contour>
    <contour>
      <point x="17" y="328" type="line"/>
      <point x="13" y="279" type="line"/>
      <point x="17" y="273" type="line"/>
      <point x="351" y="273" type="line"/>
      <point x="355" y="323" type="line"/>
      <point x="350" y="328" type="line"/>
    </contour>
    <contour>
      <point x="17" y="215" type="line"/>
      <point x="13" y="166" type="line"/>
      <point x="17" y="160" type="line"/>
      <point x="351" y="160" type="line"/>
      <point x="355" y="209" type="line" smooth="yes"/>
      <point x="350" y="215" type="line"/>
    </contour>
  </outline>
</glyph>
<glyph name="estimated" format="1">
  <advance width="788"/>
  <unicode hex="212E"/>
  <outline>
    <contour>
      <point x="203" y="649"/>
      <point x="38" y="502"/>
      <point x="38" y="319" type="curve" smooth="yes"/>
      <point x="38" y="137"/>
      <point x="203" y="-10"/>
      <point x="405" y="-10" type="curve" smooth="yes"/>
      <point x="522" y="-10"/>
      <point x="627" y="39"/>
      <point x="694" y="115" type="curve" smooth="yes"/>
      <point x="653" y="115" type="line" smooth="yes"/>
      <point x="593" y="52"/>
      <point x="505" y="10"/>
      <point x="406" y="10" type="curve" smooth="yes"/>
      <point x="316" y="10"/>
      <point x="235" y="47"/>
      <point x="179" y="104" type="curve" smooth="yes"/>
      <point x="174" y="110"/>
      <point x="170" y="117"/>
      <point x="170" y="126" type="curve" smooth="yes"/>
      <point x="170" y="307" type="line" smooth="yes"/>
      <point x="170" y="311"/>
      <point x="173" y="313"/>
      <point x="176" y="313" type="curve" smooth="yes"/>
      <point x="772" y="313" type="line"/>
      <point x="772" y="319" type="line" smooth="yes"/>
      <point x="772" y="502"/>
      <point x="607" y="649"/>
      <point x="405" y="649" type="curve" smooth="yes"/>
    </contour>
    <contour>
      <point x="494" y="629"/>
      <point x="573" y="595"/>
      <point x="630" y="539" type="curve" smooth="yes"/>
      <point x="636" y="533"/>
      <point x="640" y="526"/>
      <point x="640" y="516" type="curve" smooth="yes"/>
      <point x="640" y="338" type="line" smooth="yes"/>
      <point x="640" y="334"/>
      <point x="638" y="332"/>
      <point x="634" y="332" type="curve" smooth="yes"/>
      <point x="176" y="332" type="line" smooth="yes"/>
      <point x="172" y="332"/>
      <point x="169" y="334"/>
      <point x="169" y="338" type="curve" smooth="yes"/>
      <point x="169" y="512" type="line" smooth="yes"/>
      <point x="169" y="521"/>
      <point x="173" y="530"/>
      <point x="180" y="536" type="curve" smooth="yes"/>
      <point x="237" y="594"/>
      <point x="316" y="629"/>
      <point x="406" y="629" type="curve" smooth="yes"/>
    </contour>
  </outline>
</glyph>
<glyph name="D.ss01" format="1">
  <advance width="567"/>
  <outline>
    <contour>
      <point x="-100" y="461" type="line"/>
      <point x="667" y="461" type="line"/>
      <point x="667" y="501" type="line"/>
      <point x="-100" y="501" type="line"/>
    </contour>
    <contour>
      <point x="-100" y="0" type="line"/>
      <point x="667" y="0" type="line"/>
      <point x="667" y="40" type="line"/>
      <point x="-100" y="40" type="line"/>
    </contour>
    <contour>
      <point x="89" y="494" type="line"/>
      <point x="170" y="415" type="line"/>
      <point x="195" y="418"/>
      <point x="263" y="419"/>
      <point x="282" y="419" type="curve" smooth="yes"/>
      <point x="378" y="419"/>
      <point x="424" y="368"/>
      <point x="424" y="246" type="curve" smooth="yes"/>
      <point x="424" y="128"/>
      <point x="371" y="74"/>
      <point x="281" y="74" type="curve" smooth="yes"/>
      <point x="261" y="74"/>
      <point x="193" y="79"/>
      <point x="167" y="82" type="curve"/>
      <point x="89" y="6" type="line"/>
      <point x="139" y="3"/>
      <point x="228" y="1"/>
      <point x="266" y="1" type="curve" smooth="yes"/>
      <point x="429" y="1"/>
      <point x="520" y="96"/>
      <point x="520" y="268" type="curve" smooth="yes"/>
      <point x="520" y="415"/>
      <point x="438" y="497"/>
      <point x="289" y="497" type="curve"/>
    </contour>
    <contour>
      <point x="89" y="494" type="line"/>
      <point x="93" y="152" type="line"/>
      <point x="89" y="6" type="line"/>
      <point x="181" y="6" type="line"/>
      <point x="179" y="161" type="line"/>
      <point x="183" y="494" type="line"/>
    </contour>
    <contour>
      <point x="271" y="250" type="move" name="center"/>
    </contour>
    <contour>
      <point x="269" y="494" type="move" name="top"/>
    </contour>
  </outline>
</glyph>
<glyph name="I.ss01" format="1">
  <advance width="267"/>
  <outline>
    <contour>
      <point x="-100" y="461" type="line"/>
      <point x="367" y="461" type="line"/>
      <point x="367" y="501" type="line"/>
      <point x="-100" y="501" type="line"/>
    </contour>
    <contour>
      <point x="-100" y="0" type="line"/>
      <point x="367" y="0" type="line"/>
      <point x="367" y="40" type="line"/>
      <point x="-100" y="40" type="line"/>
    </contour>
    <contour>
      <point x="83" y="499" type="line"/>
      <point x="87" y="150" type="line"/>
      <point x="83" y="1" type="line"/>
      <point x="179" y="1" type="line"/>
      <point x="175" y="159" type="line"/>
      <point x="180" y="499" type="line"/>
    </contour>
    <contour>
      <point x="203" y="9" type="move" name="ogonek"/>
    </contour>
    <contour>
      <point x="135" y="499" type="move" name="top"/>
    </contour>
  </outline>
</glyph>
<glyph name="L.ss01" format="1">
  <advance width="384"/>
  <outline>
    <contour>
      <point x="83" y="496" type="line"/>
      <point x="87" y="152" type="line"/>
      <point x="83" y="5" type="line"/>
      <point x="355" y="5" type="line"/>
      <point x="362" y="76" type="line"/>
      <point x="356" y="83" type="line"/>
      <point x="175" y="83" type="line"/>
      <point x="173" y="161" type="line"/>
      <point x="178" y="496" type="line"/>
    </contour>
    <contour>
      <point x="-100" y="40" type="line"/>
      <point x="-100" y="0" type="line"/>
      <point x="484" y="0" type="line"/>
      <point x="484" y="40" type="line"/>
    </contour>
    <contour>
      <point x="-100" y="501" type="line"/>
      <point x="-100" y="461" type="line"/>
      <point x="484" y="461" type="line"/>
      <point x="484" y="501" type="line"/>
    </contour>
    <contour>
      <point x="171" y="501" type="move" name="top"/>
    </contour>
    <contour>
      <point x="192" y="0" type="move" name="bottom"/>
    </contour>
  </outline>
</glyph>
<glyph name="X.ss01" format="1">
  <advance width="527"/>
  <outline>
    <contour>
      <point x="-100" y="461" type="line"/>
      <point x="627" y="461" type="line"/>
      <point x="627" y="501" type="line"/>
      <point x="-100" y="501" type="line"/>
    </contour>
    <contour>
      <point x="-100" y="0" type="line"/>
      <point x="627" y="0" type="line"/>
      <point x="627" y="40" type="line"/>
      <point x="-100" y="40" type="line"/>
    </contour>
    <contour>
      <point x="380" y="485" type="line"/>
      <point x="360" y="443" type="line"/>
      <point x="268" y="318" type="line"/>
      <point x="179" y="441" type="line"/>
      <point x="157" y="485" type="line"/>
      <point x="47" y="485" type="line"/>
      <point x="209" y="250" type="line"/>
      <point x="45" y="18" type="line"/>
      <point x="138" y="18" type="line"/>
      <point x="159" y="58" type="line"/>
      <point x="261" y="194" type="line"/>
      <point x="357" y="63" type="line"/>
      <point x="378" y="18" type="line"/>
      <point x="487" y="18" type="line"/>
      <point x="321" y="263" type="line"/>
      <point x="475" y="485" type="line"/>
    </contour>
  </outline>
</glyph>
<glyph name="ampersand.sc" format="1">
  <advance width="761"/>
  <outline>
    <contour>
      <point x="632" y="711" type="line"/>
      <point x="542" y="510"/>
      <point x="315" y="322"/>
      <point x="72" y="240" type="curve"/>
      <point x="99" y="175" type="line"/>
      <point x="345" y="260"/>
      <point x="610" y="478"/>
      <point x="682" y="643" type="curve"/>
      <point x="675" y="670"/>
      <point x="661" y="691"/>
      <point x="641" y="711" type="curve"/>
    </contour>
    <contour>
      <point x="128" y="509"/>
      <point x="38" y="408"/>
      <point x="38" y="252" type="curve" smooth="yes"/>
      <point x="38" y="89"/>
      <point x="137" y="-11"/>
      <point x="305" y="-11" type="curve" smooth="yes"/>
      <point x="492" y="-11"/>
      <point x="614" y="111"/>
      <point x="607" y="286" type="curve"/>
      <point x="597" y="293" type="line"/>
      <point x="531" y="273" type="line"/>
      <point x="538" y="148"/>
      <point x="444" y="64"/>
      <point x="314" y="64" type="curve" smooth="yes"/>
      <point x="185" y="64"/>
      <point x="126" y="145"/>
      <point x="126" y="266" type="curve" smooth="yes"/>
      <point x="126" y="372"/>
      <point x="172" y="441"/>
      <point x="244" y="441" type="curve" smooth="yes"/>
      <point x="275" y="441"/>
      <point x="298" y="427"/>
      <point x="301" y="398" type="curve" smooth="yes"/>
      <point x="302" y="377"/>
      <point x="293" y="347"/>
      <point x="257" y="323" type="curve"/>
      <point x="330" y="329" type="line"/>
      <point x="357" y="355"/>
      <point x="366" y="390"/>
      <point x="366" y="414" type="curve" smooth="yes"/>
      <point x="366" y="467"/>
      <point x="324" y="509"/>
      <point x="247" y="509" type="curve" smooth="yes"/>
    </contour>
    <contour>
      <point x="395" y="195" type="line"/>
      <point x="406" y="196" type="line"/>
      <point x="428" y="235"/>
      <point x="453" y="252"/>
      <point x="483" y="252" type="curve"/>
      <point x="530" y="252"/>
      <point x="655" y="217"/>
      <point x="712" y="217" type="curve"/>
      <point x="760" y="223"/>
      <point x="790" y="247"/>
      <point x="817" y="291" type="curve"/>
      <point x="799" y="348" type="line"/>
      <point x="788" y="347" type="line"/>
      <point x="771" y="308"/>
      <point x="747" y="292"/>
      <point x="711" y="292" type="curve" smooth="yes"/>
      <point x="657" y="292"/>
      <point x="536" y="326"/>
      <point x="483" y="326" type="curve"/>
      <point x="435" y="321"/>
      <point x="404" y="298"/>
      <point x="378" y="253" type="curve"/>
    </contour>
  </outline>
</glyph>
<glyph name="b.sups" format="1">
  <advance width="352"/>
  <outline>
    <contour>
      <point x="178" y="644"/>
      <point x="152" y="625"/>
      <point x="130" y="598" type="curve"/>
      <point x="115" y="598" type="line"/>
      <point x="117" y="545" type="line"/>
      <point x="137" y="567"/>
      <point x="157" y="579"/>
      <point x="181" y="579" type="curve" smooth="yes"/>
      <point x="223" y="579"/>
      <point x="244" y="546"/>
      <point x="244" y="487" type="curve" smooth="yes"/>
      <point x="244" y="414"/>
      <point x="215" y="384"/>
      <point x="167" y="384" type="curve" smooth="yes"/>
      <point x="141" y="384"/>
      <point x="101" y="398"/>
      <point x="62" y="430" type="curve"/>
      <point x="60" y="353" type="line"/>
      <point x="96" y="337"/>
      <point x="136" y="328"/>
      <point x="173" y="328" type="curve"/>
      <point x="266" y="328"/>
      <point x="324" y="388"/>
      <point x="324" y="496" type="curve" smooth="yes"/>
      <point x="324" y="591"/>
      <point x="281" y="646"/>
      <point x="206" y="646" type="curve"/>
    </contour>
    <contour>
      <point x="45" y="796" type="line"/>
      <point x="48" y="461" type="line"/>
      <point x="45" y="338" type="line"/>
      <point x="53" y="329" type="line"/>
      <point x="128" y="353" type="line"/>
      <point x="126" y="473" type="line"/>
      <point x="131" y="801" type="line"/>
    </contour>
  </outline>
</glyph>
<glyph name="caron.cap" format="1">
  <advance width="389"/>
  <outline>
    <contour>
      <point x="300" y="679" type="line"/>
      <point x="265" y="657"/>
      <point x="230" y="636"/>
      <point x="195" y="613" type="curve"/>
      <point x="160" y="636"/>
      <point x="125" y="657"/>
      <point x="89" y="679" type="curve"/>
      <point x="79" y="679" type="line"/>
      <point x="59" y="636" type="line"/>
      <point x="103" y="606"/>
      <point x="145" y="574"/>
      <point x="183" y="540" type="curve"/>
      <point x="208" y="540" type="line"/>
      <point x="245" y="574"/>
      <point x="286" y="606"/>
      <point x="331" y="636" type="curve"/>
      <point x="312" y="679" type="line"/>
    </contour>
    <contour>
      <point x="194" y="461" type="move" name="_top"/>
    </contour>
  </outline>
</glyph>
<glyph name="circumflexacute" format="1">
  <advance width="389"/>
  <outline>
    <contour>
      <point x="319" y="783" type="line"/>
      <point x="249" y="672" type="line"/>
      <point x="284" y="644" type="line"/>
      <point x="293" y="644" type="line"/>
      <point x="380" y="753" type="line"/>
      <point x="378" y="762" type="line"/>
      <point x="328" y="786" type="line"/>
    </contour>
    <component base="circumflex.cap" yOffset="-20"/>
    <contour>
      <point x="195" y="461" type="move" name="_top"/>
    </contour>
  </outline>
</glyph>
<glyph name="circumflexgrave" format="1">
  <advance width="389"/>
  <outline>
    <contour>
      <point x="214" y="762" type="line"/>
      <point x="212" y="753" type="line"/>
      <point x="299" y="644" type="line"/>
      <point x="308" y="644" type="line"/>
      <point x="343" y="672" type="line"/>
      <point x="273" y="783" type="line"/>
      <point x="265" y="786" type="line"/>
    </contour>
    <component base="circumflex.cap" yOffset="-20"/>
    <contour>
      <point x="195" y="461" type="move" name="_top"/>
    </contour>
  </outline>
</glyph>
<glyph name="circumflextilde" format="1">
  <advance width="389"/>
  <outline>
    <component base="circumflex.cap" yOffset="-20"/>
    <component base="tilde" xOffset="17" yOffset="156" xScale="0.93" yScale="0.96"/>
    <contour>
      <point x="195" y="461" type="move" name="_top"/>
    </contour>
  </outline>
</glyph>
<glyph name="dieresiscaron" format="1">
  <advance width="389"/>
  <outline>
    <contour>
      <point x="246" y="642"/>
      <point x="226" y="621"/>
      <point x="226" y="590" type="curve" smooth="yes"/>
      <point x="226" y="559"/>
      <point x="244" y="541"/>
      <point x="274" y="541" type="curve" smooth="yes"/>
      <point x="306" y="541"/>
      <point x="325" y="562"/>
      <point x="325" y="593" type="curve" smooth="yes"/>
      <point x="325" y="624"/>
      <point x="307" y="642"/>
      <point x="278" y="642" type="curve" smooth="yes"/>
    </contour>
    <contour>
      <point x="82" y="642"/>
      <point x="62" y="621"/>
      <point x="62" y="590" type="curve" smooth="yes"/>
      <point x="62" y="559"/>
      <point x="80" y="541"/>
      <point x="110" y="541" type="curve" smooth="yes"/>
      <point x="142" y="541"/>
      <point x="161" y="562"/>
      <point x="161" y="593" type="curve" smooth="yes"/>
      <point x="161" y="624"/>
      <point x="143" y="642"/>
      <point x="114" y="642" type="curve" smooth="yes"/>
    </contour>
    <contour>
      <point x="300" y="799" type="line"/>
      <point x="265" y="777"/>
      <point x="230" y="756"/>
      <point x="195" y="734" type="curve"/>
      <point x="160" y="756"/>
      <point x="125" y="777"/>
      <point x="89" y="799" type="curve"/>
      <point x="79" y="799" type="line"/>
      <point x="59" y="757" type="line"/>
      <point x="103" y="726"/>
      <point x="145" y="693"/>
      <point x="183" y="661" type="curve"/>
      <point x="208" y="661" type="line"/>
      <point x="245" y="693"/>
      <point x="286" y="726"/>
      <point x="331" y="757" type="curve"/>
      <point x="312" y="799" type="line"/>
    </contour>
    <contour>
      <point x="195" y="461" type="move" name="_top"/>
    </contour>
  </outline>
</glyph>
<glyph name="dieresisgrave" format="1">
  <advance width="389"/>
  <outline>
    <contour>
      <point x="88" y="810" type="line"/>
      <point x="73" y="746" type="line"/>
      <point x="79" y="737" type="line"/>
      <point x="154" y="719"/>
      <point x="223" y="705"/>
      <point x="292" y="692" type="curve"/>
      <point x="302" y="697" type="line"/>
      <point x="312" y="744" type="line"/>
      <point x="240" y="765"/>
      <point x="172" y="787"/>
      <point x="98" y="815" type="curve"/>
    </contour>
    <contour>
      <point x="246" y="642"/>
      <point x="226" y="621"/>
      <point x="226" y="590" type="curve" smooth="yes"/>
      <point x="226" y="559"/>
      <point x="244" y="541"/>
      <point x="274" y="541" type="curve" smooth="yes"/>
      <point x="306" y="541"/>
      <point x="325" y="562"/>
      <point x="325" y="593" type="curve" smooth="yes"/>
      <point x="325" y="624"/>
      <point x="307" y="642"/>
      <point x="278" y="642" type="curve" smooth="yes"/>
    </contour>
    <contour>
      <point x="82" y="642"/>
      <point x="62" y="621"/>
      <point x="62" y="590" type="curve" smooth="yes"/>
      <point x="62" y="559"/>
      <point x="80" y="541"/>
      <point x="110" y="541" type="curve" smooth="yes"/>
      <point x="142" y="541"/>
      <point x="161" y="562"/>
      <point x="161" y="593" type="curve" smooth="yes"/>
      <point x="161" y="624"/>
      <point x="143" y="642"/>
      <point x="114" y="642" type="curve" smooth="yes"/>
    </contour>
    <contour>
      <point x="195" y="461" type="move" name="_top"/>
    </contour>
  </outline>
</glyph>
<glyph name="dieresismacron" format="1">
  <advance width="389"/>
  <outline>
    <contour>
      <point x="246" y="642"/>
      <point x="226" y="621"/>
      <point x="226" y="590" type="curve" smooth="yes"/>
      <point x="226" y="559"/>
      <point x="244" y="541"/>
      <point x="274" y="541" type="curve" smooth="yes"/>
      <point x="306" y="541"/>
      <point x="325" y="562"/>
      <point x="325" y="593" type="curve" smooth="yes"/>
      <point x="325" y="624"/>
      <point x="307" y="642"/>
      <point x="278" y="642" type="curve" smooth="yes"/>
    </contour>
    <contour>
      <point x="82" y="642"/>
      <point x="62" y="621"/>
      <point x="62" y="590" type="curve" smooth="yes"/>
      <point x="62" y="559"/>
      <point x="80" y="541"/>
      <point x="110" y="541" type="curve" smooth="yes"/>
      <point x="142" y="541"/>
      <point x="161" y="562"/>
      <point x="161" y="593" type="curve" smooth="yes"/>
      <point x="161" y="624"/>
      <point x="143" y="642"/>
      <point x="114" y="642" type="curve" smooth="yes"/>
    </contour>
    <contour>
      <point x="61" y="771" type="line"/>
      <point x="55" y="712" type="line"/>
      <point x="63" y="704" type="line"/>
      <point x="329" y="704" type="line"/>
      <point x="335" y="763" type="line"/>
      <point x="328" y="771" type="line"/>
    </contour>
    <contour>
      <point x="195" y="461" type="move" name="_top"/>
    </contour>
  </outline>
</glyph>
<glyph name="f.f" format="1">
  <advance width="311"/>
  <outline>
    <contour>
      <point x="169" y="690"/>
      <point x="103" y="628"/>
      <point x="104" y="514" type="curve"/>
      <point x="107" y="194" type="line"/>
      <point x="101" y="0" type="line"/>
      <point x="203" y="0" type="line"/>
      <point x="196" y="203" type="line"/>
      <point x="201" y="531" type="line"/>
      <point x="202" y="589"/>
      <point x="228" y="617"/>
      <point x="275" y="617" type="curve" smooth="yes"/>
      <point x="297" y="617"/>
      <point x="319" y="613"/>
      <point x="349" y="599" type="curve"/>
      <point x="357" y="605" type="line"/>
      <point x="363" y="681" type="line"/>
      <point x="335" y="687"/>
      <point x="309" y="690"/>
      <point x="284" y="690" type="curve" smooth="yes"/>
    </contour>
    <contour>
      <point x="37" y="459" type="line"/>
      <point x="32" y="400" type="line"/>
      <point x="36" y="394" type="line"/>
      <point x="444" y="394" type="line"/>
      <point x="449" y="452" type="line"/>
      <point x="446" y="459" type="line"/>
    </contour>
    <contour>
      <point x="180" y="0" type="move" name="bottom"/>
    </contour>
    <contour>
      <point x="288" y="749" type="move" name="top"/>
    </contour>
  </outline>
</glyph>
<glyph name="f.t" format="1">
  <advance width="318"/>
  <outline>
    <contour>
      <point x="168" y="690"/>
      <point x="103" y="628"/>
      <point x="104" y="514" type="curve"/>
      <point x="107" y="194" type="line"/>
      <point x="101" y="0" type="line"/>
      <point x="203" y="0" type="line"/>
      <point x="196" y="203" type="line"/>
      <point x="201" y="531" type="line"/>
      <point x="202" y="589"/>
      <point x="226" y="617"/>
      <point x="270" y="617" type="curve" smooth="yes"/>
      <point x="291" y="617"/>
      <point x="313" y="613"/>
      <point x="342" y="600" type="curve"/>
      <point x="349" y="605" type="line"/>
      <point x="356" y="681" type="line"/>
      <point x="330" y="687"/>
      <point x="303" y="690"/>
      <point x="278" y="690" type="curve" smooth="yes"/>
    </contour>
    <contour>
      <point x="37" y="459" type="line"/>
      <point x="32" y="400" type="line"/>
      <point x="36" y="394" type="line"/>
      <point x="442" y="394" type="line"/>
      <point x="448" y="452" type="line"/>
      <point x="444" y="459" type="line"/>
    </contour>
    <contour>
      <point x="153" y="0" type="move" name="bottom"/>
    </contour>
    <contour>
      <point x="261" y="749" type="move" name="top"/>
    </contour>
  </outline>
</glyph>
<glyph name="five.tf" format="1">
  <advance width="475"/>
  <outline>
    <contour>
      <point x="319" y="586" type="line"/>
      <point x="163" y="586" type="line"/>
      <point x="104" y="588" type="line"/>
      <point x="90" y="575" type="line"/>
      <point x="87" y="308" type="line"/>
      <point x="94" y="299" type="line"/>
      <point x="189" y="281" type="line" smooth="yes"/>
      <point x="279" y="264"/>
      <point x="319" y="234"/>
      <point x="319" y="185" type="curve" smooth="yes"/>
      <point x="319" y="115"/>
      <point x="254" y="71"/>
      <point x="154" y="71" type="curve" smooth="yes"/>
      <point x="122" y="71"/>
      <point x="87" y="75"/>
      <point x="50" y="84" type="curve"/>
      <point x="42" y="76" type="line"/>
      <point x="50" y="3" type="line"/>
      <point x="83" y="-3"/>
      <point x="123" y="-8"/>
      <point x="154" y="-8" type="curve" smooth="yes"/>
      <point x="311" y="-8"/>
      <point x="415" y="72"/>
      <point x="415" y="194" type="curve" smooth="yes"/>
      <point x="415" y="278"/>
      <point x="357" y="329"/>
      <point x="233" y="355" type="curve" smooth="yes"/>
      <point x="165" y="369" type="line"/>
      <point x="169" y="506" type="line"/>
      <point x="326" y="506" type="line"/>
      <point x="401" y="499" type="line"/>
      <point x="409" y="506" type="line"/>
      <point x="419" y="584" type="line"/>
      <point x="412" y="591" type="line"/>
    </contour>
  </outline>
</glyph>
<glyph name="four.lf" format="1">
  <advance width="497"/>
  <outline>
    <contour>
      <point x="273" y="586" type="line"/>
      <point x="26" y="229" type="line"/>
      <point x="26" y="164" type="line"/>
      <point x="33" y="155" type="line"/>
      <point x="108" y="157" type="line"/>
      <point x="355" y="157" type="line"/>
      <point x="454" y="155" type="line"/>
      <point x="460" y="226" type="line"/>
      <point x="453" y="236" type="line"/>
      <point x="115" y="236" type="line"/>
      <point x="276" y="467" type="line"/>
      <point x="282" y="467" type="line"/>
      <point x="283" y="214" type="line"/>
      <point x="280" y="1" type="line"/>
      <point x="285" y="-6" type="line"/>
      <point x="364" y="0" type="line"/>
      <point x="369" y="8" type="line"/>
      <point x="364" y="197" type="line"/>
      <point x="367" y="586" type="line"/>
    </contour>
  </outline>
</glyph>
<glyph name="four.sinf" format="1">
  <advance width="358"/>
  <outline>
    <contour>
      <point x="187" y="262" type="line"/>
      <point x="24" y="33" type="line"/>
      <point x="24" y="-20" type="line"/>
      <point x="30" y="-28" type="line"/>
      <point x="87" y="-25" type="line"/>
      <point x="249" y="-25" type="line"/>
      <point x="322" y="-28" type="line"/>
      <point x="326" y="31" type="line"/>
      <point x="321" y="38" type="line"/>
      <point x="99" y="38" type="line"/>
      <point x="190" y="168" type="line"/>
      <point x="196" y="168" type="line"/>
      <point x="196" y="21" type="line"/>
      <point x="193" y="-119" type="line"/>
      <point x="198" y="-123" type="line"/>
      <point x="266" y="-120" type="line"/>
      <point x="271" y="-114" type="line"/>
      <point x="265" y="7" type="line"/>
      <point x="267" y="262" type="line"/>
    </contour>
  </outline>
</glyph>
<glyph name="hungarumlaut.cap" format="1">
  <advance width="389"/>
  <outline>
    <contour>
      <point x="219" y="536" type="line"/>
      <point x="229" y="538" type="line"/>
      <point x="269" y="575"/>
      <point x="310" y="612"/>
      <point x="350" y="650" type="curve"/>
      <point x="349" y="660" type="line"/>
      <point x="301" y="692" type="line"/>
      <point x="293" y="690" type="line"/>
      <point x="258" y="647"/>
      <point x="222" y="606"/>
      <point x="186" y="564" type="curve"/>
    </contour>
    <contour>
      <point x="71" y="536" type="line"/>
      <point x="81" y="538" type="line"/>
      <point x="122" y="575"/>
      <point x="162" y="612"/>
      <point x="202" y="650" type="curve"/>
      <point x="201" y="660" type="line"/>
      <point x="154" y="692" type="line"/>
      <point x="145" y="690" type="line"/>
      <point x="111" y="647"/>
      <point x="75" y="606"/>
      <point x="38" y="564" type="curve"/>
    </contour>
    <contour>
      <point x="169" y="461" type="move" name="_top"/>
    </contour>
  </outline>
</glyph>
<glyph name="nine.dnom" format="1">
  <advance width="343"/>
  <outline>
    <contour>
      <point x="81" y="388"/>
      <point x="35" y="329"/>
      <point x="35" y="260" type="curve"/>
      <point x="35" y="198"/>
      <point x="76" y="147"/>
      <point x="147" y="147" type="curve" smooth="yes"/>
      <point x="171" y="147"/>
      <point x="195" y="155"/>
      <point x="214" y="167" type="curve"/>
      <point x="230" y="151" type="line"/>
      <point x="241" y="231" type="line"/>
      <point x="218" y="215"/>
      <point x="196" y="206"/>
      <point x="171" y="206" type="curve" smooth="yes"/>
      <point x="133" y="206"/>
      <point x="113" y="228"/>
      <point x="113" y="268" type="curve"/>
      <point x="113" y="311"/>
      <point x="134" y="334"/>
      <point x="174" y="334" type="curve"/>
      <point x="219" y="334"/>
      <point x="234" y="301"/>
      <point x="234" y="241" type="curve"/>
      <point x="234" y="139"/>
      <point x="189" y="87"/>
      <point x="60" y="40" type="curve"/>
      <point x="60" y="31" type="line"/>
      <point x="113" y="-5" type="line"/>
      <point x="118" y="-5" type="line"/>
      <point x="242" y="47"/>
      <point x="312" y="135"/>
      <point x="312" y="241" type="curve"/>
      <point x="312" y="333"/>
      <point x="261" y="388"/>
      <point x="175" y="388" type="curve"/>
    </contour>
  </outline>
</glyph>
<glyph name="nine.lf" format="1">
  <advance width="474"/>
  <outline>
    <contour>
      <point x="116" y="595"/>
      <point x="44" y="511"/>
      <point x="44" y="404" type="curve" smooth="yes"/>
      <point x="44" y="305"/>
      <point x="103" y="233"/>
      <point x="206" y="233" type="curve" smooth="yes"/>
      <point x="251" y="233"/>
      <point x="290" y="247"/>
      <point x="324" y="270" type="curve"/>
      <point x="343" y="249" type="line"/>
      <point x="357" y="358" type="line"/>
      <point x="320" y="325"/>
      <point x="278" y="306"/>
      <point x="235" y="306" type="curve" smooth="yes"/>
      <point x="171" y="306"/>
      <point x="135" y="346"/>
      <point x="135" y="418" type="curve" smooth="yes"/>
      <point x="135" y="489"/>
      <point x="175" y="527"/>
      <point x="240" y="527" type="curve" smooth="yes"/>
      <point x="317" y="527"/>
      <point x="347" y="475"/>
      <point x="347" y="373" type="curve" smooth="yes"/>
      <point x="347" y="212"/>
      <point x="269" y="121"/>
      <point x="65" y="48" type="curve"/>
      <point x="65" y="38" type="line"/>
      <point x="140" y="-8" type="line"/>
      <point x="146" y="-8" type="line"/>
      <point x="332" y="69"/>
      <point x="439" y="207"/>
      <point x="439" y="374" type="curve" smooth="yes"/>
      <point x="439" y="513"/>
      <point x="375" y="595"/>
      <point x="246" y="595" type="curve" smooth="yes"/>
    </contour>
  </outline>
</glyph>
<glyph name="one.lf" format="1">
  <advance width="363"/>
  <outline>
    <contour>
      <point x="8" y="530" type="line"/>
      <point x="8" y="449" type="line"/>
      <point x="17" y="444" type="line"/>
      <point x="149" y="477" type="line"/>
      <point x="150" y="196" type="line"/>
      <point x="145" y="0" type="line"/>
      <point x="247" y="0" type="line"/>
      <point x="242" y="207" type="line"/>
      <point x="249" y="583" type="line"/>
      <point x="233" y="594" type="line"/>
    </contour>
  </outline>
</glyph>
<glyph name="one.sinf" format="1">
  <advance width="265"/>
  <outline>
    <contour>
      <point x="12" y="224" type="line"/>
      <point x="12" y="156" type="line"/>
      <point x="18" y="152" type="line"/>
      <point x="97" y="172" type="line"/>
      <point x="97" y="6" type="line"/>
      <point x="94" y="-120" type="line"/>
      <point x="181" y="-120" type="line"/>
      <point x="179" y="16" type="line"/>
      <point x="182" y="257" type="line"/>
      <point x="170" y="267" type="line"/>
    </contour>
  </outline>
</glyph>
<glyph name="puso" format="1">
  <advance width="129"/>
  <outline>
    <contour>
      <point x="69" y="126" type="move"/>
    </contour>
    <component base="quotesingle" xOffset="-28" yOffset="-313" yScale="1.32"/>
  </outline>
</glyph>
<glyph name="six.lf" format="1">
  <advance width="476"/>
  <outline>
    <contour>
      <point x="334" y="595" type="line"/>
      <point x="149" y="518"/>
      <point x="41" y="380"/>
      <point x="41" y="212" type="curve" smooth="yes"/>
      <point x="41" y="74"/>
      <point x="106" y="-9"/>
      <point x="234" y="-9" type="curve" smooth="yes"/>
      <point x="364" y="-9"/>
      <point x="436" y="76"/>
      <point x="436" y="183" type="curve" smooth="yes"/>
      <point x="436" y="282"/>
      <point x="377" y="354"/>
      <point x="274" y="354" type="curve" smooth="yes"/>
      <point x="229" y="354"/>
      <point x="190" y="340"/>
      <point x="156" y="317" type="curve"/>
      <point x="138" y="338" type="line"/>
      <point x="123" y="229" type="line"/>
      <point x="161" y="262"/>
      <point x="202" y="281"/>
      <point x="245" y="281" type="curve" smooth="yes"/>
      <point x="310" y="281"/>
      <point x="345" y="241"/>
      <point x="345" y="169" type="curve" smooth="yes"/>
      <point x="345" y="98"/>
      <point x="305" y="60"/>
      <point x="241" y="60" type="curve" smooth="yes"/>
      <point x="164" y="60"/>
      <point x="133" y="112"/>
      <point x="133" y="214" type="curve" smooth="yes"/>
      <point x="133" y="375"/>
      <point x="211" y="466"/>
      <point x="416" y="539" type="curve"/>
      <point x="416" y="549" type="line"/>
      <point x="340" y="595" type="line"/>
    </contour>
  </outline>
</glyph>
<glyph name="six.tosf" format="1">
  <advance width="475"/>
  <outline>
    <contour>
      <point x="335" y="595" type="line"/>
      <point x="148" y="518"/>
      <point x="41" y="380"/>
      <point x="41" y="212" type="curve"/>
      <point x="41" y="74"/>
      <point x="113" y="-9"/>
      <point x="235" y="-9" type="curve"/>
      <point x="371" y="-9"/>
      <point x="436" y="76"/>
      <point x="436" y="184" type="curve"/>
      <point x="436" y="282"/>
      <point x="378" y="354"/>
      <point x="272" y="354" type="curve" smooth="yes"/>
      <point x="230" y="354"/>
      <point x="190" y="340"/>
      <point x="156" y="317" type="curve"/>
      <point x="138" y="338" type="line"/>
      <point x="123" y="234" type="line"/>
      <point x="160" y="264"/>
      <point x="202" y="281"/>
      <point x="245" y="281" type="curve" smooth="yes"/>
      <point x="310" y="281"/>
      <point x="345" y="244"/>
      <point x="345" y="175" type="curve"/>
      <point x="345" y="100"/>
      <point x="307" y="60"/>
      <point x="237" y="60" type="curve"/>
      <point x="163" y="60"/>
      <point x="133" y="115"/>
      <point x="133" y="214" type="curve"/>
      <point x="133" y="375"/>
      <point x="210" y="466"/>
      <point x="401" y="539" type="curve"/>
      <point x="401" y="549" type="line"/>
      <point x="341" y="595" type="line"/>
    </contour>
  </outline>
</glyph>
<glyph name="three.lf" format="1">
  <advance width="433"/>
  <outline>
    <contour>
      <point x="142" y="595"/>
      <point x="85" y="576"/>
      <point x="32" y="535" type="curve"/>
      <point x="48" y="457" type="line"/>
      <point x="58" y="457" type="line"/>
      <point x="101" y="492"/>
      <point x="139" y="512"/>
      <point x="180" y="512" type="curve" smooth="yes"/>
      <point x="228" y="512"/>
      <point x="259" y="486"/>
      <point x="259" y="443" type="curve" smooth="yes"/>
      <point x="259" y="383"/>
      <point x="200" y="342"/>
      <point x="148" y="342" type="curve" smooth="yes"/>
      <point x="104" y="341" type="line"/>
      <point x="102" y="271" type="line"/>
      <point x="108" y="264" type="line"/>
      <point x="171" y="264" type="line"/>
      <point x="245" y="261"/>
      <point x="284" y="229"/>
      <point x="284" y="174" type="curve" smooth="yes"/>
      <point x="284" y="111"/>
      <point x="231" y="72"/>
      <point x="150" y="72" type="curve" smooth="yes"/>
      <point x="114" y="72"/>
      <point x="79" y="79"/>
      <point x="43" y="93" type="curve"/>
      <point x="36" y="86" type="line"/>
      <point x="42" y="3" type="line"/>
      <point x="73" y="-3"/>
      <point x="112" y="-7"/>
      <point x="145" y="-7" type="curve" smooth="yes"/>
      <point x="286" y="-7"/>
      <point x="382" y="70"/>
      <point x="382" y="182" type="curve" smooth="yes"/>
      <point x="382" y="249"/>
      <point x="341" y="294"/>
      <point x="264" y="314" type="curve"/>
      <point x="264" y="318" type="line"/>
      <point x="334" y="355"/>
      <point x="362" y="413"/>
      <point x="362" y="464" type="curve" smooth="yes"/>
      <point x="362" y="542"/>
      <point x="297" y="595"/>
      <point x="200" y="595" type="curve" smooth="yes"/>
    </contour>
  </outline>
</glyph>
<glyph name="three.tosf" format="1">
  <advance width="475"/>
  <outline>
    <contour>
      <point x="159" y="507"/>
      <point x="99" y="487"/>
      <point x="42" y="446" type="curve"/>
      <point x="57" y="375" type="line"/>
      <point x="68" y="375" type="line"/>
      <point x="115" y="406"/>
      <point x="157" y="424"/>
      <point x="202" y="424" type="curve" smooth="yes"/>
      <point x="257" y="424"/>
      <point x="292" y="398"/>
      <point x="292" y="354" type="curve" smooth="yes"/>
      <point x="292" y="294"/>
      <point x="224" y="253"/>
      <point x="167" y="253" type="curve" smooth="yes"/>
      <point x="119" y="252" type="line"/>
      <point x="116" y="182" type="line"/>
      <point x="121" y="175" type="line"/>
      <point x="190" y="175" type="line"/>
      <point x="274" y="172"/>
      <point x="319" y="140"/>
      <point x="319" y="85" type="curve" smooth="yes"/>
      <point x="319" y="21"/>
      <point x="260" y="-18"/>
      <point x="162" y="-18" type="curve" smooth="yes"/>
      <point x="129" y="-18"/>
      <point x="90" y="-14"/>
      <point x="52" y="-5" type="curve"/>
      <point x="45" y="-12" type="line"/>
      <point x="51" y="-87" type="line"/>
      <point x="84" y="-92"/>
      <point x="127" y="-96"/>
      <point x="160" y="-96" type="curve" smooth="yes"/>
      <point x="313" y="-96"/>
      <point x="416" y="-24"/>
      <point x="416" y="82" type="curve" smooth="yes"/>
      <point x="416" y="156"/>
      <point x="371" y="203"/>
      <point x="287" y="225" type="curve"/>
      <point x="287" y="229" type="line"/>
      <point x="360" y="264"/>
      <point x="395" y="323"/>
      <point x="395" y="375" type="curve" smooth="yes"/>
      <point x="395" y="455"/>
      <point x="324" y="507"/>
      <point x="222" y="507" type="curve" smooth="yes"/>
    </contour>
  </outline>
</glyph>
<glyph name="two.lf" format="1">
  <advance width="493"/>
  <outline>
    <contour>
      <point x="178" y="593"/>
      <point x="109" y="560"/>
      <point x="50" y="506" type="curve"/>
      <point x="67" y="427" type="line"/>
      <point x="79" y="427" type="line"/>
      <point x="123" y="477"/>
      <point x="176" y="506"/>
      <point x="226" y="506" type="curve" smooth="yes"/>
      <point x="277" y="506"/>
      <point x="304" y="475"/>
      <point x="304" y="436" type="curve" smooth="yes"/>
      <point x="304" y="387"/>
      <point x="260" y="331"/>
      <point x="192" y="245" type="curve" smooth="yes"/>
      <point x="46" y="66" type="line"/>
      <point x="46" y="2" type="line"/>
      <point x="52" y="-2" type="line"/>
      <point x="92" y="0" type="line"/>
      <point x="337" y="0" type="line"/>
      <point x="455" y="-5" type="line"/>
      <point x="467" y="80" type="line"/>
      <point x="461" y="88" type="line"/>
      <point x="367" y="81" type="line"/>
      <point x="179" y="81" type="line" smooth="yes"/>
      <point x="177" y="85" type="line"/>
      <point x="280" y="221" type="line" smooth="yes"/>
      <point x="364" y="329"/>
      <point x="404" y="396"/>
      <point x="404" y="459" type="curve" smooth="yes"/>
      <point x="404" y="541"/>
      <point x="338" y="593"/>
      <point x="249" y="593" type="curve" smooth="yes"/>
    </contour>
  </outline>
</glyph>
<glyph name="two.sinf" format="1">
  <advance width="354"/>
  <outline>
    <contour>
      <point x="130" y="266"/>
      <point x="83" y="245"/>
      <point x="39" y="212" type="curve"/>
      <point x="53" y="147" type="line"/>
      <point x="63" y="147" type="line"/>
      <point x="91" y="178"/>
      <point x="128" y="196"/>
      <point x="159" y="196" type="curve" smooth="yes"/>
      <point x="190" y="196"/>
      <point x="205" y="179"/>
      <point x="205" y="157" type="curve" smooth="yes"/>
      <point x="205" y="128"/>
      <point x="177" y="94"/>
      <point x="133" y="42" type="curve" smooth="yes"/>
      <point x="37" y="-67" type="line"/>
      <point x="37" y="-118" type="line"/>
      <point x="41" y="-121" type="line"/>
      <point x="68" y="-120" type="line"/>
      <point x="234" y="-120" type="line"/>
      <point x="320" y="-123" type="line"/>
      <point x="329" y="-56" type="line"/>
      <point x="326" y="-50" type="line"/>
      <point x="260" y="-53" type="line"/>
      <point x="152" y="-53" type="line"/>
      <point x="150" y="-51" type="line"/>
      <point x="209" y="24" type="line" smooth="yes"/>
      <point x="266" y="94"/>
      <point x="292" y="136"/>
      <point x="292" y="176" type="curve" smooth="yes"/>
      <point x="292" y="233"/>
      <point x="243" y="266"/>
      <point x="180" y="266" type="curve" smooth="yes"/>
    </contour>
  </outline>
</glyph>
<glyph name="z.sups" format="1">
  <advance width="289"/>
  <outline>
    <contour>
      <point x="24" y="594" type="line"/>
      <point x="29" y="587" type="line"/>
      <point x="79" y="590" type="line"/>
      <point x="172" y="590" type="line"/>
      <point x="22" y="384" type="line"/>
      <point x="22" y="332" type="line"/>
      <point x="63" y="335" type="line"/>
      <point x="189" y="335" type="line"/>
      <point x="262" y="334" type="line"/>
      <point x="268" y="386" type="line"/>
      <point x="263" y="391" type="line"/>
      <point x="212" y="388" type="line"/>
      <point x="114" y="388" type="line"/>
      <point x="263" y="592" type="line"/>
      <point x="262" y="645" type="line"/>
      <point x="229" y="644" type="line"/>
      <point x="91" y="644" type="line"/>
      <point x="30" y="645" type="line"/>
    </contour>
    <contour>
      <point x="153" y="307" type="move" name="top"/>
    </contour>
  </outline>
</glyph>
<glyph name="zero.tosf" format="1">
  <advance width="475"/>
  <outline>
    <contour>
      <point x="109" y="508"/>
      <point x="32" y="411"/>
      <point x="32" y="242" type="curve" smooth="yes"/>
      <point x="32" y="83"/>
      <point x="105" y="-8"/>
      <point x="232" y="-8" type="curve" smooth="yes"/>
      <point x="367" y="-8"/>
      <point x="443" y="88"/>
      <point x="443" y="256" type="curve" smooth="yes"/>
      <point x="443" y="417"/>
      <point x="371" y="508"/>
      <point x="245" y="508" type="curve" smooth="yes"/>
    </contour>
    <contour>
      <point x="321" y="414"/>
      <point x="365" y="358"/>
      <point x="365" y="244" type="curve" smooth="yes"/>
      <point x="365" y="136"/>
      <point x="322" y="82"/>
      <point x="239" y="82" type="curve" smooth="yes"/>
      <point x="154" y="82"/>
      <point x="112" y="138"/>
      <point x="112" y="249" type="curve" smooth="yes"/>
      <point x="112" y="360"/>
      <point x="154" y="414"/>
      <point x="237" y="414" type="curve" smooth="yes"/>
    </contour>
  </outline>
</glyph>
